<svg width="50" height="50" viewBox="0 0 50 50" fill="none" xmlns="http://www.w3.org/2000/svg">
<path d="M44.2708 12.625V12.6229H36.1521V28.7625C36.1521 35.875 35.7833 38.5833 34.6229 40.9188C33.5167 43.2021 31.775 44.6896 28.1896 46.3875L35.7292 50C39.3146 48.1958 41.0542 46.55 42.3729 43.9479C43.7958 41.2417 44.2708 38.1083 44.2708 31.5792V12.625Z" fill="#FFE600"/>
<path d="M31.3521 37.8458V0H23.2333V12.4667C22.0208 12.1479 21.0188 12.0417 19.7021 12.0417C11.2125 12.0417 5.72917 17.4562 5.72917 25.7917C5.72917 34.4458 10.8958 38.9583 20.8083 38.9583C24.1292 38.9604 27.1875 38.6417 31.3521 37.8458ZM14.0063 25.6333C14.0063 21.1729 16.3771 18.625 20.4917 18.625H20.4833C20.5417 18.6208 20.5979 18.6208 20.6542 18.6208C21.5771 18.6208 22.4625 18.7771 23.2313 19.0479V32.1604C22.0729 32.3208 21.3333 32.3729 20.4375 32.3729C16.275 32.375 14.0063 29.9875 14.0063 25.6333Z" fill="#FFE600"/>
<path d="M44.2708 0.0437622H36.1521V8.43126H44.2708V0.0437622Z" fill="#FFE600"/>
</svg>
