<svg width="50" height="50" viewBox="0 0 50 50" fill="none" xmlns="http://www.w3.org/2000/svg">
<path d="M33.5938 46.25C33.5938 46.1328 33.6328 46.0156 33.5938 45.8984C33.5156 45.7812 33.4766 45.7031 33.3984 45.625C33.2031 45.3906 33.0078 45.1953 32.7734 44.9609L30.4688 42.6172L32.2656 40.7812L33.2422 39.7266C33.3984 39.5703 33.5938 39.2578 33.5938 39.0234V38.8672C33.5938 38.5156 33.4375 38.3203 33.0859 38.2422L33.1641 38.2812H32.8906C32.6562 38.2812 31.9922 38.9062 31.8359 39.1016C31.25 39.6875 30.8594 40.2344 30.0781 40.8203V36.1719C30.0781 35.7422 29.8438 35.5469 29.4141 35.5469H29.2969C28.8672 35.5469 28.5156 35.7422 28.5156 36.1719V46.2891C28.5156 46.7188 28.8672 46.875 29.2969 46.875H29.4141C29.8438 46.875 30.0781 46.6797 30.0781 46.2891V44.4922L31.25 45.625C31.6016 45.9766 31.9531 46.2109 32.2656 46.5234C32.4219 46.6797 32.7344 46.875 32.9688 46.875H33.0859C33.4766 46.875 33.5938 46.6797 33.6719 46.3672L33.5938 46.4062V46.25ZM48.8672 38.2812H48.7109C47.8516 38.2812 47.0703 38.5156 46.3672 39.0234C45.1953 39.8828 44.5312 41.0156 44.5312 42.5V46.3281C44.5312 46.7578 44.6875 46.875 45.1172 46.875H45.2344C45.6641 46.875 46.0938 46.7188 46.0938 46.3281V42.7344C46.0938 41.9531 46.25 41.2109 46.8359 40.625C47.3047 40.1562 47.8906 39.7656 48.5547 39.7656C49.0625 39.7656 49.6484 39.6484 49.6484 39.0234C49.6484 38.5547 49.2969 38.2812 48.8672 38.2812ZM42.8516 40.2344C42.4219 39.5312 41.8359 38.9844 41.0938 38.6328C39.7266 37.9688 38.2812 37.8906 36.9531 38.6719L36.7578 38.7891C36.2109 39.1016 35.7422 39.4922 35.3906 40C34.375 41.4844 34.2578 43.1641 35.1562 44.7266L35.2344 44.8828C35.625 45.5469 36.1328 46.0938 36.7969 46.4453C38.2031 47.2266 39.7266 47.3047 41.1328 46.5234L41.25 46.4453C41.6406 46.2109 41.7188 45.8203 41.5234 45.4297C41.4453 45.2734 41.2891 45.1562 41.1328 45.0781H41.0547C40.7812 45.0391 40.0391 45.3516 39.7656 45.4688C39.2188 45.5469 38.5938 45.5859 38.0469 45.3906L41.0156 42.8125C41.4453 42.4219 41.9141 41.9922 42.3828 41.6406C42.7734 41.3281 43.1641 40.8984 42.8516 40.3516V40.2344ZM40.1562 41.6406L36.8359 44.4922C36.7188 44.375 36.6406 44.2188 36.5625 44.1016C36.3281 43.7109 36.1719 43.2422 36.1719 42.7734C36.1328 41.6016 36.5625 40.625 37.6172 40.0391C38.3984 39.5703 39.2578 39.4922 40.1172 39.8047C40.5469 39.9609 41.0547 40.2344 41.3281 40.625C40.9375 40.9766 40.5078 41.2891 40.1562 41.6406ZM8.59375 35.5469H8.47656C8.04688 35.5469 7.8125 35.7031 7.8125 36.1328V39.2969C7.03125 38.5938 6.09375 38.3203 5 38.3203H4.6875C3.94531 38.3203 3.24219 38.4375 2.57812 38.8281C1.17188 39.6484 0.390625 40.8594 0.390625 42.5V42.8125C0.390625 43.5547 0.585938 44.1797 0.976562 44.8438C1.79688 46.25 3.08594 46.9531 4.6875 46.9531H5C5.74219 46.9531 6.52344 46.8359 7.14844 46.4844C8.55469 45.6641 9.375 44.4531 9.375 42.8516V36.2109C9.375 35.7031 9.02344 35.5469 8.59375 35.5469ZM7.38281 44.0625C6.79688 45.0391 5.9375 45.5859 4.80469 45.5859C4.33594 45.5859 3.86719 45.4688 3.47656 45.2344C2.46094 44.6875 1.875 43.7891 1.875 42.6172C1.875 42.1875 1.95312 41.7969 2.14844 41.4062C2.69531 40.2734 3.59375 39.6484 4.84375 39.6484C5.46875 39.6484 6.01562 39.8438 6.48438 40.1953C7.30469 40.7812 7.77344 41.5625 7.77344 42.5781C7.8125 43.125 7.65625 43.5938 7.38281 44.0625ZM14.6875 38.2812H14.4531C13.7109 38.2812 12.9688 38.3984 12.3438 38.7891C10.9375 39.6094 10.1562 40.8203 10.1562 42.4609V42.7734C10.1562 43.5156 10.3516 44.1406 10.7422 44.8047C11.5625 46.2109 12.8516 46.9141 14.4922 46.9141H14.8047C15.5469 46.9141 16.2891 46.7969 16.9531 46.4453C18.3594 45.625 19.1797 44.4141 19.1797 42.8125V42.5C19.1797 41.7969 18.9453 41.2109 18.6328 40.625C17.7734 39.0625 16.4062 38.2812 14.6875 38.2812ZM17.1875 44.0625C16.6016 45 15.7812 45.5859 14.6484 45.5859C14.1406 45.5859 13.6328 45.4688 13.1641 45.1953C12.1875 44.6094 11.6406 43.7891 11.6406 42.6562C11.6406 42.2266 11.7188 41.8359 11.9141 41.4453C12.4609 40.3125 13.3594 39.6875 14.6094 39.6875C15.1953 39.6875 15.7031 39.8438 16.1719 40.1562C17.0312 40.7422 17.5391 41.5625 17.5391 42.6172C17.5781 43.0859 17.4609 43.5938 17.1875 44.0625ZM26.7578 38.8281L26.7188 38.8672C26.0547 38.4375 25.3125 38.2812 24.5312 38.2812H24.2188C23.4766 38.2812 22.7344 38.3984 22.1094 38.7891C20.7031 39.6094 19.9219 40.8203 19.9219 42.4219V42.7344C19.9219 43.125 20 43.4766 20.0781 43.8672C20.7031 46.0156 22.3828 47.2266 24.6484 47.0703C25.2734 47.0312 26.9531 46.8359 26.9531 45.8984V45.7422C26.9531 45.3906 26.6797 45.0781 26.3672 45L26.3281 44.9219H26.0547L25.9766 45.0391C25.625 45.1953 25.0391 45.5078 24.6484 45.5078C24.1797 45.5078 23.6719 45.5078 23.2422 45.2734C22.1094 44.7266 21.4453 43.8281 21.4453 42.5781C21.4453 42.1484 21.5234 41.7578 21.7188 41.3672C22.2656 40.2734 23.1641 39.5703 24.4141 39.6094C24.6484 39.6094 25.0781 39.7266 25.3125 39.8438C25.5078 39.9219 26.0156 40.2344 26.25 40.2344H26.3281L26.3672 40.1562C26.7188 40.0781 26.9922 39.8047 26.9922 39.4531V39.2969C26.9922 39.1406 26.9141 39.0234 26.8359 38.9062L26.7578 38.8281ZM2.26563 26.6406L2.30469 26.7188C5.39062 31.9531 10.7812 34.1406 16.6797 34.1406C28.0859 34.1406 37.5 29.0234 41.7969 18.2812C44.6875 18.4375 47.6562 17.5781 49.0625 14.8047L49.4141 14.1016L48.7109 13.7109C47.0312 12.7344 44.8047 12.6172 42.9297 13.1641C42.6953 11.1328 41.3672 9.375 39.8047 8.125L39.1797 7.61719L38.6719 8.24219C37.6172 9.45312 37.3047 11.4844 37.4609 13.0469C37.5781 14.1797 37.9297 15.3516 38.6328 16.2891C38.0859 16.6016 37.5 17.0312 36.9531 17.2266C35.8594 17.6172 34.6484 18.0078 33.4766 18.0078H30.8594V12.5H25.7812V2.73438H19.9219V7.42188H10.1562V12.5H5.07812V17.9688H0.703125L0.625 18.5547C0.429688 21.0547 0.742187 23.4766 1.79688 25.7812L2.26563 26.6406ZM25.7812 13.6719H30.0781V17.9688H25.7812V13.6719ZM20.7031 3.51562H25V7.8125H20.7031V3.51562ZM20.7031 8.59375H25V12.8906H20.7031V8.59375ZM20.7031 13.6719H25V17.9688H20.7031V13.6719ZM15.625 8.59375H19.9219V12.8906H15.625V8.59375ZM15.625 13.6719H19.9219V17.9688H15.625V13.6719ZM16.0547 25.8594C16.0547 26.5234 15.5078 27.0703 14.8438 27.0703C14.1797 27.0703 13.6328 26.5234 13.6328 25.8594C13.6328 25.1953 14.1797 24.6484 14.8438 24.6484C15.5078 24.6875 16.0547 25.1953 16.0547 25.8594ZM10.9375 8.59375H14.8438V12.8906H10.9375V8.59375ZM10.9375 13.6719H14.8438V17.9688H10.9375V13.6719ZM5.85938 13.6719H10.1562V17.9688H5.85938V13.6719ZM6.79688 28.5156C7.42188 28.5156 8.04688 28.5156 8.63281 28.4766C10.1562 28.3984 11.4844 28.2031 12.5781 27.8906C13.4766 29.9609 15.1172 31.875 18.0469 33.2812L16.6797 33.3203C10.5078 33.2813 7.1875 31.2109 4.45312 28.4766C5.27344 28.5156 6.05469 28.5156 6.79688 28.5156ZM14.8438 26.7188C15.3125 26.7188 15.7031 26.3281 15.7031 25.8594C15.7031 25.7422 15.6641 25.625 15.625 25.5469C15.5469 25.6641 15.4688 25.7422 15.3125 25.7422C15.1172 25.7422 14.9609 25.5859 14.9609 25.3906C14.9609 25.2734 15.0391 25.1562 15.1172 25.0781C15.0781 25.0391 14.9609 25 14.8438 25C14.375 25 13.9844 25.3906 13.9844 25.8594C14.0234 26.3281 14.375 26.7188 14.8438 26.7188Z" fill="#019BC6"/>
</svg>
