<svg width="51" height="50" viewBox="0 0 51 50" fill="none" xmlns="http://www.w3.org/2000/svg">
<path d="M49.0693 22.773L27.238 0.942892C25.9816 -0.314297 23.9425 -0.314297 22.6842 0.942892L18.1517 5.47654L23.9021 11.227C25.2389 10.7758 26.771 11.0784 27.8361 12.1435C28.9067 13.2153 29.2074 14.7605 28.7443 16.1016L34.2864 21.6445C35.6272 21.1823 37.1747 21.4809 38.245 22.5536C39.7422 24.0496 39.7422 26.4748 38.245 27.9717C36.7477 29.4689 34.3233 29.4689 32.8253 27.9717C31.6996 26.8452 31.4211 25.1915 31.9915 23.8044L26.8233 18.6358L26.8225 32.2379C27.1877 32.4182 27.5319 32.659 27.8361 32.962C29.3329 34.458 29.3329 36.8825 27.8361 38.3817C26.3393 39.8777 23.9132 39.8777 22.418 38.3817C20.9216 36.8829 20.7988 34.4584 22.2948 32.962C22.6648 32.5924 23.0296 32.3132 23.4257 32.1262V18.3982C23.0296 18.2112 22.6652 17.934 22.2944 17.562C21.1612 16.4292 20.9493 14.7656 21.5308 13.373L15.8932 7.70375L0.939237 22.672C-0.318348 23.9304 -0.310426 25.9694 0.947159 27.227L22.782 49.0571C24.0388 50.3143 26.0795 50.3143 27.3382 49.0571L49.0677 27.3284C50.3253 26.0704 50.3265 24.0302 49.0693 22.773Z" fill="#F34F29"/>
</svg>
