<svg width="50" height="50" viewBox="0 0 50 50" fill="none" xmlns="http://www.w3.org/2000/svg">
<path fill-rule="evenodd" clip-rule="evenodd" d="M25 0.590637C15.823 0.590637 8.38086 8.03087 8.38086 17.2098C8.38086 24.5524 13.1426 30.782 19.7461 32.9793C20.5766 33.1332 20.8816 32.6188 20.8816 32.1797C20.8816 31.7836 20.866 30.4742 20.859 29.086C16.2352 30.091 15.2598 27.125 15.2598 27.125C14.5039 25.2039 13.4145 24.693 13.4145 24.693C11.9066 23.6617 13.5277 23.6828 13.5277 23.6828C15.1969 23.8 16.0758 25.3957 16.0758 25.3957C17.5578 27.9363 19.9637 27.2016 20.9117 26.777C21.0613 25.7027 21.4918 24.9692 21.9672 24.5543C18.2758 24.1344 14.3953 22.709 14.3953 16.341C14.3953 14.5266 15.0445 13.0442 16.1078 11.8801C15.9352 11.4613 15.3664 9.77072 16.2687 7.48165C16.2687 7.48165 17.6641 7.03556 20.8391 9.18595C22.1652 8.81759 23.5871 8.63283 24.9992 8.62658C26.4117 8.63322 27.8344 8.81798 29.1625 9.18595C32.3344 7.03595 33.7281 7.48204 33.7281 7.48204C34.6328 9.77111 34.0641 11.4613 33.8914 11.8805C34.957 13.0438 35.6016 14.5266 35.6016 16.3414C35.6016 22.7242 31.7137 24.1297 28.0129 24.5406C28.609 25.0563 29.1402 26.068 29.1402 27.6188C29.1402 29.8422 29.1215 31.6317 29.1215 32.1789C29.1215 32.6203 29.4207 33.1391 30.2629 32.9758C36.8629 30.7758 41.6184 24.5485 41.6184 17.2082C41.6191 8.03126 34.1785 0.590637 25 0.590637Z" fill="#FFE600"/>
<path d="M14.6758 24.4516C14.6387 24.5344 14.5086 24.559 14.3906 24.5023C14.2695 24.4477 14.2023 24.3356 14.2414 24.2523C14.2766 24.168 14.407 24.1441 14.5277 24.2008C14.6488 24.2555 14.7176 24.3688 14.6762 24.4516H14.6758ZM15.3488 25.2031C15.2695 25.2762 15.1145 25.2422 15.009 25.1258C14.9004 25.0098 14.8801 24.8547 14.9605 24.7805C15.0418 24.707 15.1922 24.7414 15.3004 24.8574C15.4098 24.9746 15.4312 25.1281 15.3484 25.2027L15.3488 25.2031ZM16.0039 26.1594C15.9023 26.2305 15.7355 26.1641 15.6328 26.016C15.5305 25.8688 15.5305 25.6918 15.6348 25.6203C15.7379 25.5492 15.902 25.6133 16.0059 25.7598C16.1082 25.9102 16.1082 26.0879 16.0039 26.1598V26.1594ZM16.9016 27.0844C16.8105 27.1848 16.6164 27.1578 16.4746 27.0207C16.3293 26.8867 16.2891 26.6965 16.3801 26.5961C16.4727 26.4957 16.6676 26.5238 16.8105 26.6598C16.9551 26.7934 16.9988 26.984 16.9016 27.084V27.0844ZM18.1406 27.6211C18.1 27.7516 17.9133 27.8106 17.725 27.7555C17.5367 27.6984 17.4141 27.5461 17.4516 27.4148C17.4906 27.2836 17.6789 27.2223 17.8684 27.2813C18.0559 27.3375 18.1789 27.4883 18.1402 27.6211H18.1406ZM19.5 27.7207C19.5051 27.8574 19.3453 27.9715 19.1477 27.9738C18.9492 27.9785 18.7883 27.8676 18.7859 27.7324C18.7859 27.5941 18.9422 27.4816 19.1406 27.4785C19.3383 27.4746 19.5 27.5848 19.5 27.7207ZM20.7656 27.5055C20.7891 27.6391 20.6523 27.7766 20.4559 27.8129C20.2629 27.8488 20.0848 27.766 20.0598 27.6332C20.0363 27.4965 20.1758 27.3598 20.3684 27.3238C20.5648 27.2895 20.7406 27.3699 20.7656 27.5059V27.5055Z" fill="#FFE600"/>
<path d="M9.70897 42.3055H5.52928C5.47748 42.3055 5.42781 42.3261 5.39118 42.3627C5.35455 42.3993 5.33397 42.449 5.33397 42.5008V44.5445C5.33397 44.5963 5.35455 44.646 5.39118 44.6827C5.42781 44.7193 5.47748 44.7399 5.52928 44.7399H7.15936V47.2789C7.15936 47.2789 6.79335 47.4039 5.78046 47.4039C4.58671 47.4039 2.91835 46.968 2.91835 43.2992C2.91835 39.6301 4.65585 39.1469 6.2871 39.1469C7.69882 39.1469 8.30663 39.3953 8.69413 39.5152C8.81522 39.552 8.9285 39.4309 8.9285 39.3231L9.39452 37.3485C9.39527 37.3189 9.38884 37.2896 9.37578 37.263C9.36272 37.2365 9.34341 37.2135 9.31952 37.1961C9.1621 37.0836 8.2035 36.5477 5.78124 36.5477C2.99061 36.5477 0.128113 37.7344 0.128113 43.4422C0.128113 49.1492 3.40546 49.9996 6.16718 49.9996C8.45389 49.9996 9.841 49.0223 9.841 49.0223C9.89804 48.991 9.90428 48.9109 9.90428 48.8738V42.5004C9.90428 42.4486 9.88371 42.3989 9.84708 42.3623C9.81045 42.3257 9.76077 42.3051 9.70897 42.3051V42.3055ZM31.057 37.0352H28.7031C28.6774 37.0353 28.652 37.0404 28.6283 37.0504C28.6047 37.0603 28.5832 37.0748 28.5651 37.0931C28.547 37.1113 28.5327 37.133 28.523 37.1567C28.5133 37.1805 28.5084 37.206 28.5086 37.2317L28.5094 41.7801H24.8406V37.2317C24.8408 37.206 24.8359 37.1806 24.8262 37.1568C24.8165 37.1331 24.8023 37.1114 24.7842 37.0932C24.7662 37.075 24.7448 37.0604 24.7211 37.0505C24.6975 37.0405 24.6721 37.0353 24.6465 37.0352H22.293C22.2673 37.0353 22.2419 37.0404 22.2182 37.0504C22.1945 37.0603 22.173 37.0748 22.1549 37.0931C22.1369 37.1113 22.1226 37.133 22.1129 37.1567C22.1032 37.1805 22.0983 37.206 22.0984 37.2317V49.5481C22.0984 49.6563 22.1859 49.7445 22.293 49.7445H24.6465C24.6722 49.7444 24.6976 49.7392 24.7212 49.7292C24.7449 49.7192 24.7663 49.7047 24.7844 49.6864C24.8024 49.6681 24.8167 49.6464 24.8263 49.6226C24.836 49.5988 24.8408 49.5734 24.8406 49.5477V44.2797H28.5094L28.5031 49.5477C28.5031 49.6563 28.5906 49.7445 28.6984 49.7445H31.057C31.0827 49.7444 31.1081 49.7392 31.1318 49.7292C31.1554 49.7192 31.1769 49.7047 31.1949 49.6864C31.213 49.6681 31.2272 49.6464 31.2369 49.6226C31.2465 49.5988 31.2514 49.5734 31.2512 49.5477V37.2313C31.2512 37.1227 31.1652 37.0352 31.057 37.0352ZM12.6328 37.3152C11.7953 37.3152 11.1156 38 11.1156 38.8477C11.1156 39.6942 11.7953 40.3809 12.6328 40.3809C13.4711 40.3809 14.1504 39.6942 14.1504 38.8477C14.1504 38 13.4707 37.3152 12.6328 37.3152ZM13.7875 41.0684H11.4414C11.3336 41.0684 11.2375 41.1793 11.2375 41.2871V49.4324C11.2375 49.6719 11.3867 49.743 11.5797 49.743H13.693C13.9254 49.743 13.982 49.6289 13.982 49.4285V46.9496V41.2649C13.9821 41.2392 13.9772 41.2138 13.9675 41.1901C13.9577 41.1663 13.9434 41.1447 13.9254 41.1265C13.9073 41.1083 13.8858 41.0938 13.8622 41.0839C13.8385 41.074 13.8131 41.0689 13.7875 41.0688V41.0684ZM40.1961 41.0867H37.8601C37.8345 41.0869 37.8091 41.0922 37.7855 41.1022C37.7619 41.1122 37.7405 41.1268 37.7225 41.145C37.7045 41.1633 37.6903 41.185 37.6807 41.2087C37.671 41.2325 37.6662 41.258 37.6664 41.2836V47.3227C37.6664 47.3227 37.0726 47.7563 36.2308 47.7563C35.389 47.7563 35.1656 47.3746 35.1656 46.55V41.2836C35.1658 41.2579 35.161 41.2325 35.1513 41.2087C35.1417 41.1849 35.1274 41.1632 35.1094 41.1449C35.0913 41.1266 35.0699 41.1121 35.0462 41.1021C35.0226 41.0921 34.9972 41.0869 34.9715 41.0867H32.6012C32.5493 41.0871 32.4997 41.1081 32.4632 41.145C32.4268 41.1819 32.4064 41.2317 32.4066 41.2836V46.9485C32.4066 49.3977 33.7719 49.9969 35.6496 49.9969C37.1902 49.9969 38.4324 49.1453 38.4324 49.1453C38.4324 49.1453 38.491 49.5945 38.5183 49.6473C38.5457 49.7004 38.6148 49.7539 38.6902 49.7539L40.198 49.7473C40.2238 49.7472 40.2493 49.742 40.273 49.7321C40.2968 49.7221 40.3183 49.7076 40.3365 49.6893C40.3546 49.671 40.369 49.6493 40.3787 49.6255C40.3885 49.6017 40.3934 49.5762 40.3933 49.5504L40.3922 41.2824C40.392 41.2306 40.3714 41.181 40.3348 41.1443C40.2982 41.1076 40.2487 41.0868 40.1969 41.0863L40.1961 41.0867ZM46.5797 40.8102C45.2531 40.8102 44.3508 41.402 44.3508 41.402V37.2313C44.3509 37.2056 44.346 37.1802 44.3363 37.1564C44.3267 37.1327 44.3124 37.1111 44.2944 37.0928C44.2764 37.0746 44.2549 37.0601 44.2313 37.0501C44.2076 37.0401 44.1823 37.0349 44.1566 37.0348H41.7969C41.7711 37.0348 41.7456 37.0399 41.7218 37.0498C41.6981 37.0596 41.6765 37.0741 41.6583 37.0924C41.6402 37.1107 41.6258 37.1323 41.6161 37.1562C41.6063 37.18 41.6014 37.2055 41.6015 37.2313V49.5477C41.6014 49.5734 41.6063 49.5989 41.6161 49.6228C41.6258 49.6466 41.6402 49.6683 41.6583 49.6865C41.6765 49.7048 41.6981 49.7193 41.7218 49.7292C41.7456 49.7391 41.7711 49.7442 41.7969 49.7442H43.4344C43.5086 49.7442 43.564 49.7063 43.6051 49.6395C43.6453 49.5731 43.7043 49.0715 43.7043 49.0715C43.7043 49.0715 44.6691 49.9856 46.4965 49.9856C48.641 49.9856 49.8715 48.8981 49.8715 45.102C49.8715 41.3059 47.9066 40.8098 46.5793 40.8098L46.5797 40.8102ZM45.6578 47.7492C44.848 47.7246 44.2984 47.357 44.2984 47.357V43.4567C44.2984 43.4567 44.8406 43.1246 45.5055 43.0645C46.3465 42.9891 47.157 43.2434 47.157 45.2496C47.157 47.3656 46.7918 47.7832 45.6582 47.7488L45.6578 47.7492ZM20.7793 47.7031C20.6765 47.7031 20.4133 47.7449 20.1426 47.7449C19.2754 47.7449 18.9812 47.3418 18.9812 46.8199V43.3567H20.7469C20.7726 43.3567 20.7982 43.3516 20.822 43.3416C20.8458 43.3317 20.8674 43.3172 20.8855 43.2989C20.9037 43.2806 20.918 43.2589 20.9278 43.235C20.9375 43.2111 20.9424 43.1856 20.9422 43.1598V41.2629C20.9423 41.2372 20.9373 41.2117 20.9275 41.1879C20.9178 41.1641 20.9034 41.1425 20.8852 41.1243C20.8671 41.1061 20.8455 41.0916 20.8218 41.0818C20.798 41.0719 20.7726 41.0668 20.7469 41.0668H18.9812L18.9785 38.7348C18.9785 38.6461 18.9332 38.602 18.8308 38.602H16.4246C16.3316 38.602 16.2812 38.6434 16.2812 38.7328V41.143C16.2812 41.143 15.0754 41.434 14.9941 41.4574C14.9536 41.4693 14.9179 41.4939 14.8926 41.5277C14.8672 41.5616 14.8535 41.6027 14.8535 41.6449V43.1594C14.8533 43.185 14.8582 43.2105 14.8679 43.2342C14.8776 43.258 14.8919 43.2796 14.9099 43.2978C14.9279 43.3161 14.9494 43.3306 14.973 43.3406C14.9966 43.3505 15.022 43.3557 15.0476 43.3559H16.2812V46.9996C16.2812 49.7067 18.1797 49.9723 19.4609 49.9723C20.0457 49.9723 20.7461 49.7848 20.8617 49.7418C20.932 49.7156 20.9723 49.6434 20.9723 49.5649L20.9738 47.8988C20.973 47.8472 20.9522 47.7979 20.9158 47.7613C20.8793 47.7248 20.8301 47.7038 20.7785 47.7027L20.7793 47.7031Z" fill="#AC9AA3"/>
</svg>
