<svg width="50" height="50" viewBox="0 0 50 50" fill="none" xmlns="http://www.w3.org/2000/svg">
<path d="M20.5395 26.491C20.5395 26.491 19.2566 27.2375 21.4539 27.4899C24.1156 27.7938 25.4762 27.75 28.409 27.1957C28.409 27.1957 29.182 27.6789 30.2586 28.0977C23.682 30.9152 15.3742 27.9344 20.5395 26.491ZM19.7352 22.8133C19.7352 22.8133 18.2961 23.8793 20.4949 24.1067C23.3387 24.4 25.5836 24.4242 29.4711 23.6758C29.4711 23.6758 30.0074 24.2211 30.8523 24.5184C22.9023 26.8442 14.0473 24.7016 19.7352 22.8133Z" fill="#0074BD"/>
<path d="M26.5098 16.5746C28.1313 18.441 26.0848 20.1191 26.0848 20.1191C26.0848 20.1191 30.1992 17.9953 28.3098 15.3348C26.5445 12.8547 25.1918 11.623 32.5172 7.3746C32.5176 7.3746 21.018 10.2457 26.5098 16.5746Z" fill="#EA2D2E"/>
<path d="M35.2078 29.2113C35.2078 29.2113 36.1578 29.9945 34.1617 30.6C30.3664 31.7496 18.3633 32.0965 15.0293 30.6457C13.8316 30.1242 16.0789 29.4008 16.7855 29.2488C17.5227 29.0891 17.9438 29.1184 17.9438 29.1184C16.6109 28.1797 9.32852 30.9617 14.2449 31.7598C27.6527 33.9328 38.6852 30.7809 35.2078 29.2113ZM21.157 19.0027C21.157 19.0027 15.052 20.4531 18.9953 20.9805C20.6609 21.2031 23.9789 21.152 27.0719 20.8926C29.5988 20.6805 32.1348 20.227 32.1348 20.227C32.1348 20.227 31.2445 20.609 30.5996 21.0488C24.3988 22.6797 12.4227 21.9199 15.8707 20.2527C18.7859 18.8422 21.157 19.0027 21.157 19.0027ZM32.1094 25.1238C38.4121 21.8496 35.4977 18.7027 33.4637 19.1266C32.9664 19.2305 32.743 19.3203 32.743 19.3203C32.743 19.3203 32.9285 19.0297 33.2812 18.9051C37.3055 17.491 40.3996 23.0773 31.9836 25.2898C31.9836 25.2898 32.0801 25.2023 32.1094 25.1238Z" fill="#0074BD"/>
<path d="M28.3102 0.512878C28.3102 0.512878 31.8004 4.00468 24.9992 9.37304C19.5453 13.6805 23.7555 16.1359 24.9969 18.9426C21.8133 16.0699 19.4781 13.541 21.0445 11.1879C23.3449 7.73397 29.718 6.05858 28.3102 0.512878Z" fill="#EA2D2E"/>
<path d="M21.777 33.9996C27.8254 34.3863 37.1164 33.7844 37.3363 30.9223C37.3363 30.9223 36.9137 32.007 32.3367 32.868C27.1734 33.8398 20.8043 33.727 17.0277 33.1035C17.0277 33.1035 17.8012 33.7441 21.777 33.9996Z" fill="#0074BD"/>
<path d="M37.057 39.1332H36.8727V39.0301H37.3687V39.1332H37.1852V39.6477H37.0566L37.057 39.1332ZM38.0473 39.159H38.0449L37.8621 39.6477H37.7777L37.5961 39.159H37.5941V39.6477H37.4723V39.0301H37.6508L37.8191 39.4672L37.9879 39.0301H38.1652V39.6477H38.0473V39.159ZM20.7855 44.9363C20.2152 45.4309 19.6121 45.709 19.0703 45.709C18.2992 45.709 17.8809 45.2457 17.8809 44.5039C17.8809 43.7012 18.3285 43.1133 20.1223 43.1133H20.7852V44.9363H20.7855ZM22.3602 46.7129V41.2141C22.3602 39.8082 21.5582 38.8809 19.627 38.8809C18.4996 38.8809 17.5113 39.1598 16.7078 39.5145L16.9391 40.4883C17.5719 40.2559 18.3902 40.0402 19.1934 40.0402C20.3066 40.0402 20.7852 40.4883 20.7852 41.4156V42.1106H20.2289C17.5254 42.1106 16.3055 43.1594 16.3055 44.7367C16.3055 46.0957 17.1094 46.868 18.623 46.868C19.5957 46.868 20.3227 46.4664 21.0012 45.8785L21.1246 46.7133H22.3602V46.7129ZM27.6148 46.7129H25.6512L23.2875 39.0219H25.0027L26.4699 43.7481L26.7961 45.168C27.5367 43.1141 28.0617 41.0289 28.3242 39.0223H29.9926C29.5461 41.5539 28.7414 44.334 27.6148 46.7129ZM35.1492 44.9363C34.577 45.4309 33.9734 45.709 33.4336 45.709C32.6617 45.709 32.2437 45.2457 32.2437 44.5039C32.2437 43.7012 32.6926 43.1133 34.4844 43.1133H35.1488V44.9363H35.1492ZM36.7246 46.7129V41.2141C36.7246 39.8082 35.9203 38.8809 33.9906 38.8809C32.8621 38.8809 31.8742 39.1598 31.0707 39.5145L31.3023 40.4883C31.9352 40.2559 32.7547 40.0402 33.5578 40.0402C34.6695 40.0402 35.1492 40.4883 35.1492 41.4156V42.1106H34.593C31.8887 42.1106 30.6691 43.1594 30.6691 44.7367C30.6691 46.0957 31.4723 46.868 32.9855 46.868C33.9586 46.868 34.6844 46.4664 35.3648 45.8785L35.4891 46.7133H36.7246V46.7129ZM14.5789 48.0199C14.1309 48.6758 13.4051 49.1949 12.6113 49.4875L11.8344 48.5715C12.4387 48.2613 12.9562 47.7609 13.1973 47.2945C13.4051 46.8793 13.4914 46.3453 13.4914 45.0676V36.2856H15.1648V44.9469C15.1648 46.6559 15.0289 47.3469 14.5789 48.0199Z" fill="#EA2D2E"/>
</svg>
