<svg width="50" height="50" viewBox="0 0 50 50" fill="none" xmlns="http://www.w3.org/2000/svg">
<path fill-rule="evenodd" clip-rule="evenodd" d="M34.0855 39.1168C34.1516 38.9898 34.2148 38.8777 34.2687 38.7617C34.3027 38.6875 34.3551 38.6726 34.4289 38.6746C34.8715 38.6871 35.3141 38.7008 35.757 38.7051C36.1332 38.709 36.5101 38.7019 36.8867 38.6976C37.3109 38.6926 37.7351 38.6703 38.159 38.6824C38.7234 38.6988 39.2734 38.8094 39.784 39.0605C40.3937 39.3609 40.8551 39.8183 41.1695 40.4211C41.3703 40.8058 41.4867 41.2141 41.5332 41.6476C41.6004 42.2758 41.5562 42.8894 41.357 43.4902C41.1101 44.2348 40.6414 44.8047 39.9902 45.2316C39.4891 45.5601 38.9394 45.7543 38.3504 45.8652C37.7269 45.9828 37.1016 45.9449 36.4762 45.9469C35.7902 45.9496 35.1047 45.9348 34.4187 45.9269C34.2988 45.9258 34.2816 45.9031 34.3133 45.7887L34.3426 45.6832C34.4094 45.473 34.4453 45.4637 34.6586 45.4285C34.8062 45.4047 34.9594 45.3492 35.0832 45.2672C35.1551 45.2195 35.1848 45.0953 35.2129 44.9996C35.2371 44.916 35.2383 44.8242 35.2391 44.7359C35.2488 43.398 35.259 42.0605 35.2644 40.7234C35.2656 40.3855 35.2578 40.0469 35.2391 39.7094C35.2258 39.473 35.0996 39.3113 34.8184 39.2555C34.5996 39.2121 34.3793 39.1785 34.1594 39.1398L34.0855 39.1168ZM40.3652 42.3562C40.3355 42.0898 40.3211 41.8211 40.2734 41.5586C40.1594 40.9285 39.8836 40.3797 39.3992 39.9496C38.616 39.2547 37.673 39.1476 36.6848 39.2305C36.4598 39.2492 36.4113 39.3262 36.4078 39.5574C36.4023 39.8855 36.3969 40.2137 36.3965 40.5418C36.3949 41.5824 36.3949 42.623 36.3965 43.6637C36.3969 43.9598 36.4 44.2559 36.4086 44.5512C36.418 44.8535 36.5277 45.1094 36.8238 45.2266C37.2906 45.4113 37.7816 45.4332 38.2715 45.3578C39.0539 45.2379 39.6012 44.782 39.9684 44.0988C40.259 43.5566 40.341 42.9648 40.3652 42.3562ZM42.2672 45.8996C42.2578 45.7375 42.3242 45.6035 42.4062 45.4805C42.4285 45.4473 42.5051 45.4488 42.5578 45.4383L43.0055 45.3496C43.1637 45.316 43.2469 45.2098 43.2691 45.0547C43.284 44.9523 43.298 44.8488 43.2992 44.7453C43.309 43.9262 43.3184 43.107 43.3223 42.2879C43.3262 41.4676 43.323 40.6473 43.323 39.8269L43.3195 39.6703C43.3035 39.4066 43.1762 39.2699 42.9144 39.2312L42.3469 39.1449C42.2769 39.1355 42.2516 39.1019 42.2769 39.0398C42.3207 38.934 42.3625 38.8242 42.4242 38.7289C42.4473 38.6937 42.525 38.6801 42.5773 38.6812C42.8484 38.6851 43.1195 38.7055 43.3906 38.7051L45.7504 38.691C46.2051 38.6906 46.6441 38.7699 47.0519 38.9875C47.5008 39.2266 47.7519 39.5965 47.8238 40.1004C47.8988 40.6297 47.7383 41.0758 47.3516 41.4301C47.1926 41.5762 46.9867 41.6715 46.8023 41.7902L46.7422 41.8277C46.9133 41.8906 47.0762 41.9449 47.2348 42.0098C47.6988 42.2 48.068 42.4973 48.2633 42.9719C48.4176 43.3465 48.4176 43.7371 48.3262 44.1254C48.184 44.7332 47.7836 45.1375 47.2629 45.4433C46.7742 45.7305 46.2453 45.8976 45.682 45.9258C45.1625 45.9519 44.6406 45.9422 44.1199 45.948L43.8184 45.9496C43.3168 45.9383 42.8148 45.9254 42.3129 45.9121L42.2672 45.8996ZM44.4301 43.5211H44.4351C44.4351 43.7781 44.4316 44.0351 44.4363 44.2922C44.4394 44.4586 44.4336 44.6297 44.4695 44.7898C44.5234 45.0293 44.6328 45.2453 44.9016 45.3141C45.2644 45.4074 45.6351 45.4262 46.0023 45.3625C46.4621 45.2824 46.8289 45.0519 47.0301 44.6141C47.1793 44.2887 47.2016 43.9437 47.1504 43.5914C47.0824 43.1273 46.8359 42.7906 46.4262 42.5699C46.1574 42.425 45.8707 42.3363 45.5652 42.3246C45.223 42.3117 44.8805 42.3109 44.5383 42.3004C44.4422 42.2976 44.4289 42.3465 44.4293 42.4254C44.4312 42.7902 44.4301 43.1555 44.4301 43.5211ZM45.1586 41.773C45.3457 41.7637 45.5574 41.7609 45.768 41.7398C46.1711 41.6996 46.4551 41.4969 46.6031 41.1113C46.6785 40.9156 46.6754 40.7141 46.6773 40.5105C46.6832 39.9805 46.3738 39.5461 45.8703 39.3664C45.4816 39.2277 45.0809 39.2254 44.6777 39.2363C44.5144 39.2406 44.4414 39.3121 44.4391 39.4766L44.4148 41.6207C44.4137 41.7059 44.4504 41.7426 44.5332 41.7453L45.1586 41.773Z" fill="#94795D"/>
<path fill-rule="evenodd" clip-rule="evenodd" d="M4.11836 45.4875L4.08985 45.8562C3.82422 45.8562 3.5793 45.8543 3.33438 45.857C2.87305 45.8617 2.41172 45.8691 1.95 45.8758L1.90547 45.8785C1.83946 45.8707 1.71953 45.8707 1.71641 45.8512C1.69688 45.7414 1.70313 45.6262 1.70821 45.5125C1.7086 45.4996 1.75352 45.4832 1.77969 45.477L2.13867 45.3969C2.3625 45.3387 2.44141 45.2422 2.45196 45.0109C2.46406 44.7504 2.47617 44.4895 2.47735 44.2289C2.48086 43.5875 2.47696 42.9469 2.47969 42.3055C2.48008 42.1555 2.42813 42.0437 2.28828 41.9828C2.12188 41.9094 1.95469 41.8375 1.78633 41.7695C1.70664 41.7375 1.60313 41.7199 1.6125 41.6129C1.62188 41.5039 1.72227 41.4754 1.8168 41.4539C2.20821 41.3645 2.6 41.2773 2.99024 41.182C3.11602 41.1512 3.23633 41.0992 3.38672 41.0469C3.39453 41.1281 3.40899 41.2055 3.40742 41.2828L3.38438 41.6504C3.38399 41.6918 3.40547 41.7473 3.43633 41.7703C3.45508 41.7848 3.51797 41.7586 3.54922 41.7344C3.88281 41.4805 4.23594 41.2613 4.63867 41.1336C5.2625 40.9355 5.79805 41.1191 6.17305 41.657C6.30508 41.8465 6.30547 41.8465 6.48867 41.7141C6.80313 41.4855 7.13203 41.284 7.5 41.1512C8.30781 40.8594 9.08399 41.2297 9.36485 42.0434C9.46719 42.3387 9.50625 42.6438 9.50547 42.9555L9.49805 45.025C9.49766 45.1957 9.5543 45.293 9.7168 45.3461C9.89922 45.4059 10.0883 45.4469 10.2938 45.5008L10.2461 45.8566C10.0125 45.8566 9.79766 45.8551 9.58281 45.857C9.05781 45.8617 8.53281 45.8645 8.0082 45.8766C7.9168 45.8789 7.89297 45.8562 7.88828 45.7707C7.87305 45.4969 7.87071 45.4973 8.12852 45.4355L8.21524 45.4133C8.46719 45.3445 8.55117 45.2672 8.55313 45.0117C8.55899 44.2781 8.57422 43.5426 8.53711 42.8105C8.49844 42.0512 7.8957 41.6469 7.15977 41.8414C6.91953 41.9047 6.70195 42.0156 6.49961 42.1594C6.43125 42.2082 6.41836 42.2645 6.42383 42.35C6.44453 42.6734 6.45742 42.9973 6.46016 43.3211C6.46485 43.8879 6.45781 44.4547 6.46016 45.0219C6.46094 45.2516 6.53945 45.3395 6.76641 45.3926L7.10352 45.4703L7.16602 45.4844C7.1707 45.5922 7.175 45.7 7.16992 45.8078C7.1668 45.8754 7.11445 45.8813 7.05586 45.8801C6.72813 45.8719 6.4 45.8609 6.07227 45.8617C5.67344 45.8625 5.275 45.8738 4.87656 45.8809H4.78281C4.78281 45.7664 4.77735 45.657 4.78672 45.548C4.78867 45.5219 4.83477 45.4852 4.86641 45.477L5.25938 45.3937C5.42617 45.3527 5.50586 45.2672 5.51524 45.0977C5.55977 44.3125 5.5918 43.527 5.51797 42.7422C5.50352 42.5898 5.45391 42.4352 5.39063 42.2949C5.18946 41.8504 4.73672 41.6648 4.21445 41.7984C3.96641 41.8617 3.74258 41.9754 3.53086 42.1187C3.43086 42.1867 3.38321 42.2766 3.38321 42.3902C3.38321 43.1734 3.38594 43.9566 3.38828 44.7395L3.39258 45.0414C3.39727 45.252 3.48672 45.3629 3.69571 45.4082C3.83008 45.4387 3.96602 45.4594 4.11836 45.4875Z" fill="#FFC0A0"/>
<path fill-rule="evenodd" clip-rule="evenodd" d="M27.7348 41.127C27.7953 41.4215 27.7941 41.6863 27.5777 41.8871C27.3629 42.0867 27.091 42.0195 26.8258 41.975C26.8504 42.1148 26.8777 42.2336 26.891 42.3539C26.9875 43.248 26.6027 43.9117 25.7734 44.291C25.4602 44.434 25.1277 44.4871 24.7883 44.5145C24.6195 44.5277 24.4719 44.6566 24.4559 44.7953C24.4394 44.9359 24.5277 45.0805 24.7043 45.1227C24.9125 45.1723 25.1297 45.1863 25.3434 45.2109C25.8019 45.2633 26.2656 45.2871 26.7187 45.3691C27.4039 45.4926 27.7863 46.0906 27.6656 46.7789C27.5582 47.3914 27.2035 47.8371 26.709 48.1789C25.8758 48.7562 24.9617 48.925 23.9883 48.6305C23.4316 48.4617 23.0391 48.0957 22.9035 47.5035C22.8355 47.207 22.9078 46.9387 23.1309 46.7375C23.3961 46.4992 23.6848 46.2867 23.9625 46.0617L24.0523 45.9715L23.9492 45.8992C23.666 45.7648 23.4394 45.5809 23.3516 45.2613C23.3215 45.1531 23.3527 45.082 23.4445 45.0266C23.6008 44.9324 23.7562 44.8367 23.9105 44.7394C23.9832 44.6941 24.0551 44.6473 24.1227 44.5949C24.2148 44.5246 24.2066 44.4723 24.0965 44.4316C23.8402 44.3371 23.6125 44.2 23.4359 43.9891C23.141 43.6371 23.0574 43.218 23.0816 42.7754C23.1195 42.084 23.4949 41.6285 24.1051 41.3355C24.8305 40.9875 25.5582 40.9656 26.2977 41.2828C26.5711 41.4 26.8594 41.425 27.1527 41.4047C27.3719 41.3891 27.5633 41.3062 27.7348 41.127ZM25.0617 46.0805C24.5172 46.0758 24.3465 46.143 24.0269 46.4684C23.6691 46.8332 23.6711 47.3391 24.0281 47.7055C24.2992 47.9832 24.6375 48.1133 25.0137 48.1523C25.4531 48.1977 25.8859 48.1793 26.2852 47.9594C26.7109 47.7238 26.9227 47.2863 26.8269 46.8457C26.7477 46.482 26.4797 46.3156 26.1535 46.2199C25.7824 46.1113 25.3988 46.0906 25.0617 46.0805ZM23.9922 42.6008C24.0121 42.7519 24.0203 42.9051 24.0539 43.0531C24.141 43.4367 24.3078 43.7738 24.6894 43.9445C25.1375 44.1457 25.7098 44.0594 25.9059 43.4305C26.0402 42.9996 26.0238 42.5719 25.8617 42.1516C25.7894 41.9641 25.673 41.8055 25.5062 41.6891C25.1172 41.4176 24.4152 41.3816 24.1293 41.9816C24.0363 42.1766 24 42.384 23.9922 42.6008Z" fill="#FFC0A0"/>
<path fill-rule="evenodd" clip-rule="evenodd" d="M18.4961 41.0305C18.5105 41.0973 18.5395 41.173 18.5402 41.2492C18.5414 41.3941 18.5258 41.5391 18.5176 41.684V41.8098L18.6402 41.716C18.9762 41.4394 19.3371 41.2039 19.7574 41.0769C20.516 40.8484 21.2738 41.2637 21.5211 42.0363C21.6148 42.3301 21.652 42.632 21.6555 42.9391C21.6633 43.6211 21.668 44.3031 21.675 44.9852C21.6773 45.2301 21.7055 45.2738 21.9371 45.3445C22.0684 45.3848 22.2039 45.4129 22.3395 45.434C22.4141 45.4457 22.4461 45.475 22.4422 45.548L22.443 45.6152C22.4402 45.8977 22.4207 45.9105 22.1469 45.9098C21.4914 45.9086 20.8363 45.9125 20.1809 45.918C19.9855 45.9195 19.9852 45.9254 19.9656 45.7324L19.9617 45.6215C19.9738 45.4551 19.9777 45.4566 20.1414 45.4324C20.2516 45.416 20.3609 45.3906 20.4684 45.3625C20.5789 45.334 20.632 45.2523 20.6469 45.143C20.6543 45.0875 20.6641 45.032 20.6637 44.9766C20.6543 44.2312 20.6664 43.4852 20.6258 42.741C20.593 42.1391 20.1336 41.7805 19.5293 41.8215C19.2328 41.8422 18.9648 41.941 18.7203 42.1117C18.559 42.2246 18.5266 42.3875 18.5273 42.5629C18.5305 43.2598 18.5371 43.9566 18.5445 44.6539C18.5461 44.8066 18.5504 44.9594 18.5648 45.1109C18.5801 45.2766 18.6383 45.3434 18.8008 45.3793C18.9563 45.4137 19.1148 45.4336 19.2809 45.4613L19.2949 45.5894C19.3004 45.8883 19.2691 45.9105 18.9789 45.9094C18.3012 45.9066 17.6234 45.9109 16.9461 45.9184C16.8395 45.9199 16.7941 45.8863 16.7969 45.7824L16.7953 45.7379C16.7777 45.4687 16.7855 45.4586 17.0402 45.4148L17.1605 45.3906C17.4363 45.3285 17.507 45.2551 17.5109 44.975C17.5238 44.0879 17.5285 43.2012 17.5375 42.3141C17.5387 42.1867 17.4906 42.0879 17.3719 42.0352C17.2055 41.9617 17.0375 41.8918 16.8691 41.8227C16.7762 41.7844 16.6699 41.7602 16.6664 41.6316C16.6641 41.541 16.7609 41.4609 16.8934 41.434C17.1594 41.3801 17.4277 41.3352 17.6906 41.2691C17.9523 41.2039 18.2094 41.1164 18.4961 41.0305Z" fill="#FFC0A0"/>
<path fill-rule="evenodd" clip-rule="evenodd" d="M33.1504 43.3477C33.1379 44.1762 32.9227 44.8461 32.3367 45.3488C31.5945 45.9867 30.4367 46.2035 29.4902 45.7266C29.0863 45.523 28.7895 45.2109 28.5961 44.8059C28.2996 44.1828 28.2254 43.5277 28.3801 42.8566C28.5332 42.193 28.9352 41.7121 29.5367 41.4008C30.1555 41.0809 30.807 40.9559 31.4941 41.1238C32.3633 41.3359 32.9879 42.0445 33.1121 42.9469C33.1344 43.1051 33.143 43.2652 33.1504 43.3477ZM32.1438 43.7965L32.1102 43.7926C32.1102 43.7144 32.1145 43.6363 32.1094 43.5582C32.0809 43.0715 31.9715 42.6078 31.6895 42.2004C31.4219 41.8144 31.0574 41.5867 30.5832 41.5535C30.0523 41.516 29.6063 41.8129 29.4496 42.3551C29.2145 43.1691 29.2941 43.9625 29.7074 44.7082C29.8875 45.0332 30.1543 45.273 30.5117 45.3992C31.2121 45.6457 31.8332 45.3266 32.0156 44.6094C32.0828 44.3445 32.1023 44.0676 32.1438 43.7965Z" fill="#FFC0A0"/>
<path fill-rule="evenodd" clip-rule="evenodd" d="M15.9449 43.4117C15.9305 44.0062 15.7902 44.5559 15.4231 45.0336C15.0297 45.5453 14.4891 45.8187 13.8742 45.934C13.1473 46.0699 12.4645 45.9465 11.8805 45.4586C11.6031 45.2266 11.4137 44.9293 11.2887 44.591C11.0836 44.0363 11.0324 43.468 11.1586 42.8887C11.2934 42.2687 11.6434 41.7949 12.1859 41.4769C12.8133 41.1102 13.4902 40.9465 14.2133 41.1113C15.143 41.3238 15.6797 41.9297 15.8781 42.8469C15.918 43.032 15.9234 43.2234 15.9449 43.4117ZM14.927 43.8039L14.9 43.8V43.6883C14.8848 43.143 14.7781 42.6234 14.4527 42.1703C14.2117 41.834 13.8891 41.623 13.4754 41.5641C12.8012 41.468 12.3606 41.868 12.2145 42.4113C12.0238 43.1211 12.0836 43.8223 12.3785 44.4953C12.5625 44.9148 12.8531 45.2418 13.2996 45.4004C13.9957 45.6477 14.6262 45.3203 14.8023 44.6059C14.8672 44.3445 14.8867 44.0719 14.927 43.8039Z" fill="#FFC0A0"/>
<path fill-rule="evenodd" clip-rule="evenodd" d="M32.1726 13.1031C32.6519 14.4887 32.9965 15.9031 33.1101 17.3687C33.2508 19.1875 33.1867 20.9937 32.8031 22.7824L32.7539 22.9254C32.6336 22.9258 32.5109 22.9105 32.3934 22.9289C31.4 23.0852 30.4078 23.2469 29.4152 23.4078C28.3891 23.5742 27.3621 23.734 26.3379 23.9113C25.975 23.9738 25.5258 23.8992 25.3793 24.4008L25.309 24.4246L25.3586 21.4254L25.3082 14.1887L25.7863 14.1066C26.568 13.9789 27.3496 13.8488 28.1324 13.7242C29.066 13.5762 30.0004 13.4316 30.9348 13.2871C31.3473 13.2238 31.7601 13.1648 32.1726 13.1031Z" fill="#439934"/>
<path fill-rule="evenodd" clip-rule="evenodd" d="M24.3223 33.1684C23.818 32.7348 23.2961 32.3203 22.8129 31.8641C20.2121 29.4109 18.3094 26.5231 17.3723 23.0414C17.1141 22.0836 16.9422 21.1098 16.8867 20.1199C16.8477 19.427 16.7918 18.7281 16.841 18.0387C16.9711 16.2055 17.2363 14.3899 17.7738 12.6238L17.8035 12.5828C17.8559 12.6524 17.9309 12.7141 17.9574 12.7926C18.4824 14.3379 19.0031 15.8848 19.5215 17.4328C21.15 22.2965 22.7766 27.1613 24.4078 32.0242C24.4398 32.1192 24.5223 32.1969 24.5816 32.2824L24.3223 33.1684Z" fill="#45A538"/>
<path fill-rule="evenodd" clip-rule="evenodd" d="M32.1727 13.1031C31.7598 13.1645 31.3469 13.2238 30.9348 13.2871C30.0004 13.4316 29.066 13.5762 28.1324 13.7242C27.35 13.8484 26.5684 13.9785 25.7863 14.1066L25.3082 14.1887L25.3043 13.877C25.2883 13.6207 25.2617 13.3645 25.2582 13.1082L25.2047 8.2043C25.1922 7.18125 25.1734 6.1582 25.1527 5.13555C25.1398 4.5 25.1262 3.86406 25.0977 3.2293C25.082 2.88828 25.027 2.54883 25.0051 2.20781C24.9922 2.01172 25.0094 1.81406 25.0137 1.61719C25.2574 2.08945 25.4961 2.56523 25.7465 3.03398C26.1422 3.775 26.773 4.32109 27.3414 4.9168C29.5859 7.27266 31.1793 10.0102 32.1727 13.1031Z" fill="#46A037"/>
<path fill-rule="evenodd" clip-rule="evenodd" d="M25.3094 24.4246L25.3797 24.4008C25.5262 23.8992 25.9754 23.9738 26.3383 23.9113C27.3625 23.734 28.3895 23.5742 29.4156 23.4078C30.4082 23.2473 31.4004 23.0855 32.3937 22.9289C32.5113 22.9105 32.634 22.9258 32.7543 22.9254C32.5687 23.5879 32.4227 24.2648 32.1871 24.909C31.9195 25.6395 31.5961 26.3527 31.2527 27.052C30.7395 28.0969 30.1 29.0719 29.357 29.9652C28.7844 30.6535 28.1461 31.2906 27.5066 31.9191C27.1527 32.2664 26.7363 32.5496 26.348 32.8621L26.2473 32.7934L25.8852 32.484L25.5105 31.6621C25.2523 30.7004 25.1172 29.7215 25.0945 28.7262L25.1016 28.559L25.1527 27.8348C25.1695 27.5875 25.1922 27.3406 25.2027 27.0934C25.2402 26.2043 25.2738 25.3145 25.3094 24.4246Z" fill="#409433"/>
<path fill-rule="evenodd" clip-rule="evenodd" d="M25.3094 24.4246C25.2742 25.3145 25.2406 26.2047 25.2027 27.0945C25.1922 27.3422 25.1699 27.5891 25.1527 27.8359L24.9246 27.9223C24.4176 26.4297 23.9102 24.9527 23.4141 23.4723C22.5934 21.0227 21.7828 18.5695 20.9633 16.1191C20.302 14.1418 19.6348 12.1656 18.9641 10.191C18.9324 10.0988 18.8426 10.0262 18.7801 9.94454L20.241 7.25821C20.2914 7.34532 20.3574 7.42696 20.3891 7.52071C21.0648 9.52071 21.7395 11.5211 22.4082 13.5234C23.2785 16.1289 24.143 18.7356 25.0125 21.3414C25.0473 21.4453 25.1043 21.5414 25.159 21.6582L25.359 21.4254C25.3422 22.4254 25.3258 23.4246 25.3094 24.4246Z" fill="#4FAA41"/>
<path fill-rule="evenodd" clip-rule="evenodd" d="M18.7797 9.94452C18.8426 10.0262 18.9324 10.0988 18.9637 10.191C19.6344 12.1656 20.3016 14.1414 20.9629 16.1191C21.7824 18.5695 22.593 21.0226 23.4137 23.4723C23.9098 24.9527 24.4172 26.4293 24.9242 27.9223L25.1523 27.8359L25.1012 28.5601L25.0547 28.7269C24.9754 29.5195 24.9086 30.3137 24.8117 31.1047C24.7633 31.5012 24.6598 31.8902 24.5813 32.2824C24.5223 32.1969 24.4395 32.1191 24.4074 32.0242C22.7758 27.1613 21.1496 22.2965 19.5211 17.4328C19.0027 15.8848 18.4816 14.3379 17.957 12.7926C17.9305 12.7141 17.8555 12.6523 17.8031 12.5828L18.7797 9.94452Z" fill="#4AA73C"/>
<path fill-rule="evenodd" clip-rule="evenodd" d="M25.3586 21.4254L25.1586 21.6582C25.1039 21.5414 25.0469 21.4453 25.0121 21.3414C24.1426 18.7356 23.2781 16.1289 22.4078 13.5234C21.7391 11.5211 21.0645 9.52072 20.3887 7.52072C20.357 7.42697 20.291 7.34532 20.2406 7.25822L22.0473 4.88165C22.1043 4.95743 22.1856 5.02501 22.2148 5.11056C22.7164 6.57931 23.2133 8.04923 23.7078 9.52032C24.1695 10.8945 24.6242 12.2703 25.0914 13.6422C25.1227 13.734 25.2316 13.7988 25.3043 13.877L25.3082 14.1887L25.3586 21.4254Z" fill="#57AE47"/>
<path fill-rule="evenodd" clip-rule="evenodd" d="M25.3043 13.877C25.2313 13.7992 25.1227 13.7344 25.0914 13.6422C24.6246 12.2703 24.1695 10.8945 23.7078 9.52032C23.2133 8.04922 22.7164 6.5793 22.2148 5.11055C22.1856 5.02501 22.1043 4.95743 22.0473 4.88165C22.6348 4.30626 23.2039 3.71016 23.8152 3.16133C24.3586 2.67383 24.7953 2.15118 24.8156 1.38047L24.8586 1.22696L25.0133 1.6168C25.0094 1.81368 24.9918 2.01133 25.0047 2.20743C25.027 2.54844 25.082 2.8879 25.0973 3.22891C25.1258 3.86368 25.1395 4.49962 25.1523 5.13516C25.1731 6.15782 25.1918 7.18087 25.2043 8.20391L25.2578 13.1078C25.2617 13.3645 25.2887 13.6207 25.3043 13.877Z" fill="#60B24F"/>
<path fill-rule="evenodd" clip-rule="evenodd" d="M24.5816 32.282C24.6602 31.8899 24.7637 31.5008 24.8121 31.1043C24.909 30.3137 24.9758 29.5192 25.0551 28.7266L25.075 28.7234L25.0945 28.727C25.1172 29.7223 25.2523 30.7012 25.5105 31.6629C25.4578 31.7324 25.384 31.7938 25.3559 31.8719C25.1391 32.4836 24.9344 33.1004 24.7164 33.7117C24.6867 33.7953 24.6031 33.8606 24.5449 33.9336L24.3219 33.168L24.5816 32.282Z" fill="#A9AA88"/>
<path fill-rule="evenodd" clip-rule="evenodd" d="M24.5449 33.934C24.6031 33.8605 24.6867 33.7957 24.7164 33.7121C24.9344 33.1008 25.1391 32.484 25.3559 31.8723C25.3836 31.7941 25.4578 31.7328 25.5105 31.6633L25.8852 32.4851C25.8113 32.5898 25.709 32.6848 25.668 32.8016L24.9508 34.9078C24.9211 34.9926 24.8207 35.0519 24.7527 35.1234L24.5449 33.934Z" fill="#B6B598"/>
<path fill-rule="evenodd" clip-rule="evenodd" d="M24.7527 35.1231C24.8203 35.0516 24.9211 34.9922 24.9508 34.9074L25.668 32.8012C25.7086 32.6844 25.8113 32.5895 25.8852 32.4848L26.2477 32.7938C26.0727 32.9668 25.9754 33.1668 26.034 33.4195L25.9238 33.7801C25.8738 33.8418 25.8012 33.8957 25.7766 33.9664C25.5262 34.6836 25.2875 35.4047 25.0352 36.1215C25.0031 36.2121 24.9145 36.2836 24.8523 36.3641L24.7527 35.1231Z" fill="#C2C1A7"/>
<path fill-rule="evenodd" clip-rule="evenodd" d="M24.852 36.3637C24.9145 36.2832 25.0031 36.2117 25.0348 36.1211C25.2871 35.4043 25.5262 34.6832 25.7762 33.966C25.8008 33.8953 25.8734 33.8418 25.9234 33.7797L25.7715 35.4344C25.7309 35.4813 25.6723 35.5223 25.6527 35.5766L25.1473 37.025C25.1117 37.1238 25.0438 37.2121 24.9906 37.3047C24.9434 37.243 24.859 37.1832 24.8551 37.1191C24.8402 36.8684 24.8508 36.6156 24.852 36.3637Z" fill="#CECDB7"/>
<path fill-rule="evenodd" clip-rule="evenodd" d="M24.991 37.3051C25.0441 37.2125 25.1121 37.1242 25.1477 37.0254L25.6531 35.5769C25.6727 35.5223 25.7316 35.4816 25.7719 35.4348L25.7758 36.5207L25.4121 37.4531L24.991 37.3051Z" fill="#DBDAC7"/>
<path fill-rule="evenodd" clip-rule="evenodd" d="M25.4121 37.4531L25.7758 36.5207L25.8508 37.6238L25.4121 37.4531Z" fill="#EBE9DC"/>
<path fill-rule="evenodd" clip-rule="evenodd" d="M26.0336 33.4195C25.9754 33.1672 26.0723 32.9672 26.2473 32.7938L26.348 32.8625L26.0336 33.4195Z" fill="#CECDB7"/>
<path fill-rule="evenodd" clip-rule="evenodd" d="M25.0945 28.7273L25.075 28.7238L25.0551 28.7269L25.1016 28.5602L25.0945 28.7273Z" fill="#4FAA41"/>
</svg>
