<svg width="77" height="50" viewBox="0 0 77 50" fill="none" xmlns="http://www.w3.org/2000/svg">
<g clip-path="url(#clip0_20_4)">
<path d="M37.9935 49.8557C37.7334 49.8557 37.4906 49.7822 37.265 49.6534L34.958 48.1995C34.611 47.997 34.7845 47.9234 34.8887 47.8866C35.3569 47.721 35.4437 47.6841 35.9294 47.3898C35.9814 47.3529 36.0509 47.3713 36.1029 47.4081L37.8722 48.5307C37.9416 48.5675 38.0283 48.5675 38.0803 48.5307L45.0015 44.2795C45.0708 44.2427 45.1057 44.169 45.1057 44.0771V35.593C45.1057 35.5008 45.0708 35.4274 45.0015 35.3905L38.0803 31.1576C38.0109 31.1207 37.9242 31.1207 37.8722 31.1576L30.951 35.3905C30.8816 35.4272 30.8468 35.5193 30.8468 35.5928V44.0769C30.8468 44.1506 30.8816 44.2425 30.951 44.2795L32.8418 45.4389C33.8652 45.9909 34.507 45.3468 34.507 44.7027V36.329C34.507 36.2186 34.5937 36.1081 34.7152 36.1081H35.5998C35.7039 36.1081 35.8079 36.2002 35.8079 36.329V44.7027C35.8079 46.1565 35.062 47.0032 33.7611 47.0032C33.3621 47.0032 33.0499 47.0032 32.1652 46.543L30.3439 45.4389C29.8929 45.1629 29.6154 44.6475 29.6154 44.0954V35.6113C29.6154 35.0592 29.8929 34.5438 30.3439 34.2678L37.265 30.0166C37.6987 29.7589 38.2886 29.7589 38.7222 30.0166L45.6433 34.2678C46.0943 34.5438 46.3719 35.0592 46.3719 35.6113V44.0954C46.3719 44.6475 46.0943 45.1629 45.6433 45.4389L38.7222 49.6901C38.4966 49.8006 38.2365 49.8557 37.9936 49.8557H37.9935ZM40.1271 44.0218C37.0916 44.0218 36.4671 42.5495 36.4671 41.2981C36.4671 41.1876 36.5539 41.0772 36.6753 41.0772H37.5773C37.6813 41.0772 37.7681 41.1508 37.7681 41.2613C37.9069 42.2366 38.3058 42.7151 40.1445 42.7151C41.6016 42.7151 42.2262 42.3655 42.2262 41.5373C42.2262 41.0588 42.0526 40.7092 39.7803 40.4699C37.8895 40.2674 36.71 39.8258 36.71 38.2247C36.71 36.7339 37.8896 35.8505 39.867 35.8505C42.0873 35.8505 43.1802 36.6604 43.319 38.4269C43.319 38.4823 43.3016 38.5374 43.2669 38.5927C43.2321 38.6295 43.1802 38.6662 43.1281 38.6662H42.2261C42.1393 38.6662 42.0526 38.5927 42.0353 38.5006C41.8272 37.4885 41.2894 37.1572 39.867 37.1572C38.2712 37.1572 38.0803 37.7462 38.0803 38.1877C38.0803 38.7215 38.3058 38.8871 40.4567 39.1815C42.5904 39.4761 43.5965 39.8994 43.5965 41.482C43.5791 43.1016 42.3303 44.0218 40.1271 44.0218Z" fill="#539E43"/>
<path d="M16.5188 16.6739C16.5188 16.3427 16.3453 16.0296 16.0678 15.864L8.71295 11.3736C8.59138 11.2999 8.4527 11.2631 8.31402 11.2446H8.24453C8.10585 11.2446 7.96702 11.2999 7.8456 11.3736L0.490745 15.864C0.213084 16.0296 0.0397339 16.3425 0.0397339 16.6739L0.057144 28.7467C0.057144 28.9123 0.143894 29.0779 0.282574 29.1516C0.421405 29.2436 0.594755 29.2436 0.716325 29.1516L5.0876 26.5014C5.36511 26.3358 5.53861 26.0229 5.53861 25.6917V20.0417C5.53861 19.7105 5.71196 19.3976 5.98962 19.232L7.8456 18.0909C7.98443 17.9989 8.14052 17.962 8.29661 17.962C8.4527 17.962 8.60879 17.9989 8.73036 18.0909L10.5863 19.232C10.864 19.3976 11.0373 19.7104 11.0373 20.0417V25.6917C11.0373 26.0229 11.2108 26.3358 11.4884 26.5014L15.8596 29.1516C15.9985 29.2436 16.1718 29.2436 16.3106 29.1516C16.4495 29.0779 16.5362 28.9123 16.5362 28.7467L16.5188 16.6739ZM51.8707 0.0552641C51.732 -0.018462 51.5585 -0.018462 51.4369 0.0552641C51.2983 0.147302 51.2115 0.294436 51.2115 0.460041V12.4226C51.2115 12.533 51.1596 12.6433 51.0554 12.717C50.9514 12.7721 50.8473 12.7721 50.7432 12.717L48.9045 11.5944C48.7697 11.513 48.6173 11.4702 48.4622 11.4702C48.307 11.4702 48.1546 11.513 48.0198 11.5944L40.6649 16.1034C40.3874 16.269 40.2139 16.5819 40.2139 16.9131V25.9124C40.2139 26.2436 40.3874 26.5567 40.6649 26.7223L48.0198 31.2312C48.1546 31.3127 48.307 31.3555 48.4622 31.3555C48.6173 31.3555 48.7697 31.3127 48.9045 31.2312L56.2594 26.7223C56.5369 26.5567 56.7104 26.2438 56.7104 25.9124V3.47835C56.7104 3.12867 56.5369 2.81593 56.2594 2.65017L51.8708 0.0552641H51.8707ZM51.1943 22.9495C51.1943 23.0416 51.1596 23.1151 51.0901 23.1519L48.5749 24.6978C48.5398 24.716 48.5012 24.7254 48.4622 24.7254C48.4231 24.7254 48.3845 24.716 48.3494 24.6978L45.8342 23.1519C45.7647 23.1151 45.73 23.0231 45.73 22.9495V19.8577C45.73 19.7656 45.7647 19.692 45.8342 19.6553L48.3494 18.1092C48.3845 18.0911 48.4231 18.0816 48.4622 18.0816C48.5012 18.0816 48.5398 18.0911 48.5749 18.1092L51.0901 19.6553C51.1596 19.6919 51.1943 19.7841 51.1943 19.8577V22.9495ZM76.3464 19.7841C76.6241 19.6185 76.7801 19.3056 76.7801 18.9742V16.7842C76.7801 16.453 76.6066 16.1401 76.3464 15.9745L69.0436 11.4841C68.9088 11.4027 68.7564 11.3599 68.6013 11.3599C68.4462 11.3599 68.2938 11.4027 68.159 11.4841L60.8042 15.9928C60.5265 16.1584 60.3532 16.4713 60.3532 16.8027V25.8021C60.3532 26.1333 60.5265 26.4462 60.8042 26.6118L68.1069 31.0287C68.3846 31.1943 68.714 31.1943 68.9743 31.0287L73.3975 28.4156C73.5363 28.3419 73.6231 28.1763 73.6231 28.0107C73.6231 27.8451 73.5363 27.6795 73.3975 27.6057L66.008 23.0968C65.8693 23.0049 65.7825 22.8577 65.7825 22.692V19.8763C65.7825 19.7107 65.8693 19.5451 66.008 19.4713L68.3151 18.0726C68.3826 18.0275 68.4608 18.0036 68.5406 18.0036C68.6204 18.0036 68.6986 18.0275 68.7661 18.0726L71.0731 19.4713C71.2119 19.5634 71.2987 19.7105 71.2987 19.8763V22.0847C71.2987 22.2503 71.3854 22.4159 71.5241 22.4895C71.6629 22.5815 71.8363 22.5815 71.9751 22.4895L76.3464 19.7841V19.7841Z" fill="#333333"/>
<path d="M68.4886 19.3608C68.5143 19.3429 68.5444 19.3333 68.5752 19.3333C68.6061 19.3333 68.6362 19.3429 68.6619 19.3608L70.067 20.2258C70.1191 20.2624 70.1538 20.3177 70.1538 20.3914V22.1214C70.1538 22.1949 70.1191 22.2502 70.067 22.287L68.6619 23.1519C68.6362 23.1699 68.6061 23.1795 68.5752 23.1795C68.5444 23.1795 68.5143 23.1699 68.4886 23.1519L67.0835 22.287C67.0314 22.2502 66.9967 22.1949 66.9967 22.1214V20.3914C66.9967 20.3177 67.0314 20.2624 67.0835 20.2258L68.4886 19.3608V19.3608Z" fill="#539E43"/>
<mask id="mask0_20_4" style="mask-type:alpha" maskUnits="userSpaceOnUse" x="20" y="11" width="17" height="21">
<path d="M28.8174 11.5209C28.6826 11.4395 28.5301 11.3967 28.3751 11.3967C28.22 11.3967 28.0675 11.4395 27.9327 11.5209L20.63 15.9927C20.3523 16.1583 20.1962 16.4712 20.1962 16.8024V25.7651C20.1962 26.0964 20.3697 26.4093 20.63 26.5749L27.9327 31.047C28.0675 31.1284 28.22 31.1712 28.3751 31.1712C28.5301 31.1712 28.6826 31.1284 28.8174 31.047L36.1203 26.5749C36.3978 26.4093 36.554 26.0964 36.554 25.7651V16.8026C36.554 16.4714 36.3804 16.1585 36.1203 15.9929L28.8174 11.5209Z" fill="white"/>
</mask>
<g mask="url(#mask0_20_4)">
<path d="M28.8174 11.5209C28.6826 11.4395 28.5301 11.3967 28.3751 11.3967C28.22 11.3967 28.0675 11.4395 27.9327 11.5209L20.63 15.9927C20.3523 16.1583 20.1962 16.4712 20.1962 16.8024V25.7651C20.1962 26.0964 20.3697 26.4093 20.63 26.5749L27.9327 31.047C28.0675 31.1284 28.22 31.1712 28.3751 31.1712C28.5301 31.1712 28.6826 31.1284 28.8174 31.047L36.1203 26.5749C36.3978 26.4093 36.554 26.0964 36.554 25.7651V16.8026C36.554 16.4714 36.3804 16.1585 36.1203 15.9929L28.8174 11.5209Z" fill="url(#paint0_linear_20_4)"/>
<path d="M36.1375 15.9928L28.8001 11.5209C28.728 11.4822 28.6524 11.4514 28.5745 11.4288L20.3523 26.3728C20.4204 26.461 20.5027 26.5358 20.5953 26.5936L27.9327 31.0658C28.1409 31.1946 28.3837 31.2314 28.6092 31.1577L36.3284 16.1771C36.2763 16.1035 36.2069 16.0481 36.1375 15.993V15.9928Z" fill="url(#paint1_linear_20_4)"/>
<path fill-rule="evenodd" clip-rule="evenodd" d="M36.1549 26.575C36.3631 26.4462 36.5192 26.2253 36.5887 25.9862L28.5397 11.4104C28.3315 11.3736 28.1059 11.3919 27.9153 11.5207L20.6298 15.9745L28.4876 31.176C28.6019 31.1561 28.7129 31.119 28.8172 31.0656L36.1548 26.5752L36.1549 26.575Z" fill="url(#paint2_linear_20_4)"/>
<path fill-rule="evenodd" clip-rule="evenodd" d="M36.155 26.575L28.8348 31.0471C28.7314 31.103 28.6201 31.1403 28.5052 31.1575L28.644 31.4336L36.7621 26.4463V26.3358L36.5539 25.9677C36.5192 26.2253 36.3631 26.4462 36.155 26.575V26.575Z" fill="url(#paint3_linear_20_4)"/>
<path fill-rule="evenodd" clip-rule="evenodd" d="M36.155 26.575L28.8348 31.0471C28.7314 31.103 28.6201 31.1403 28.5052 31.1575L28.644 31.4336L36.7621 26.4463V26.3358L36.5539 25.9677C36.5192 26.2253 36.3631 26.4462 36.155 26.575V26.575Z" fill="url(#paint4_linear_20_4)"/>
</g>
</g>
<defs>
<linearGradient id="paint0_linear_20_4" x1="31.3503" y1="14.8546" x2="22.655" y2="27.7325" gradientUnits="userSpaceOnUse">
<stop stop-color="#41873F"/>
<stop offset="0.3288" stop-color="#418B3D"/>
<stop offset="0.6352" stop-color="#419637"/>
<stop offset="0.9319" stop-color="#3FA92D"/>
<stop offset="1" stop-color="#3FAE2A"/>
</linearGradient>
<linearGradient id="paint1_linear_20_4" x1="27.2663" y1="22.3338" x2="47.8365" y2="11.8" gradientUnits="userSpaceOnUse">
<stop offset="0.1376" stop-color="#41873F"/>
<stop offset="0.4032" stop-color="#54A044"/>
<stop offset="0.7136" stop-color="#66B848"/>
<stop offset="0.9081" stop-color="#6CC04A"/>
</linearGradient>
<linearGradient id="paint2_linear_20_4" x1="19.9294" y1="21.2842" x2="36.8279" y2="21.2842" gradientUnits="userSpaceOnUse">
<stop offset="0.09192" stop-color="#6CC04A"/>
<stop offset="0.2864" stop-color="#66B848"/>
<stop offset="0.5968" stop-color="#54A044"/>
<stop offset="0.8624" stop-color="#41873F"/>
</linearGradient>
<linearGradient id="paint3_linear_20_4" x1="19.9295" y1="28.7157" x2="36.8279" y2="28.7157" gradientUnits="userSpaceOnUse">
<stop offset="0.09192" stop-color="#6CC04A"/>
<stop offset="0.2864" stop-color="#66B848"/>
<stop offset="0.5968" stop-color="#54A044"/>
<stop offset="0.8624" stop-color="#41873F"/>
</linearGradient>
<linearGradient id="paint4_linear_20_4" x1="39.2897" y1="14.4308" x2="34.4921" y2="38.126" gradientUnits="userSpaceOnUse">
<stop stop-color="#41873F"/>
<stop offset="0.3288" stop-color="#418B3D"/>
<stop offset="0.6352" stop-color="#419637"/>
<stop offset="0.9319" stop-color="#3FA92D"/>
<stop offset="1" stop-color="#3FAE2A"/>
</linearGradient>
<clipPath id="clip0_20_4">
<rect width="76.8546" height="50" fill="white"/>
</clipPath>
</defs>
</svg>
