<svg width="50" height="50" viewBox="0 0 50 50" fill="none" xmlns="http://www.w3.org/2000/svg">
<path d="M33.5891 29.7168C33.8359 27.6613 33.7621 27.3598 35.293 27.6926L35.6816 27.727C36.859 27.7805 38.3992 27.5375 39.3035 27.1172C41.2512 26.2137 42.4059 24.7043 40.4855 25.1008C36.1047 26.0043 35.8035 24.5215 35.8035 24.5215C40.4297 17.6578 42.3637 8.94532 40.6945 6.81251C36.1422 0.995322 28.2617 3.7461 28.1297 3.81759L28.0875 3.82579C27.2219 3.64571 26.2535 3.53868 25.1652 3.5211C23.1828 3.48868 21.6785 4.04103 20.5375 4.90626C20.5375 4.90626 6.4793 -0.885537 7.13321 12.1899C7.27227 14.9715 11.1203 33.2375 15.7098 27.7203C17.3871 25.7031 19.0082 23.9973 19.0082 23.9973C19.8133 24.532 20.777 24.8047 21.7879 24.7066L21.866 24.6402C21.8418 24.8906 21.8523 25.1356 21.8977 25.4254C20.7152 26.7469 21.0629 26.9789 18.6988 27.4652C16.3074 27.9582 17.7125 28.8356 18.6293 29.0649C19.7418 29.3434 22.3141 29.7375 24.0527 27.3035L23.9836 27.5813C24.4477 27.9524 24.416 30.2481 24.4816 31.8883C24.5473 33.5285 24.6574 35.059 24.9918 35.9621C25.3262 36.8645 25.7207 39.1891 28.8273 38.5234C31.4234 37.9664 33.4082 37.1656 33.5891 29.7168Z" fill="black"/>
<path d="M27.8156 40.1445C26.4414 40.1445 25.5469 39.6133 25.0031 39.1C24.1828 38.3262 23.8574 37.3289 23.6633 36.7332L23.5793 36.4844C23.1879 35.4277 23.0555 33.9066 22.977 31.9481C22.9652 31.6543 22.9567 31.3508 22.9477 31.0293C22.941 30.7945 22.9328 30.5 22.9211 30.191C22.4328 30.425 21.9102 30.5902 21.3598 30.6848C20.391 30.8504 19.3496 30.7965 18.2637 30.525C17.4977 30.3336 16.7016 29.9367 16.2481 29.3234C14.9258 30.4816 13.6645 30.3242 12.9774 30.0953C11.7652 29.691 10.6805 28.5555 9.66056 26.6227C8.93439 25.2465 8.23166 23.4527 7.57189 21.2922C6.42345 17.5293 5.69377 13.566 5.62892 12.2652C5.42502 8.19219 6.52111 5.27969 8.88673 3.60899C12.6192 0.97266 18.2735 2.52266 20.3348 3.22657C21.7195 2.3918 23.3488 1.98516 25.1902 2.01485C26.1793 2.03086 27.1207 2.11797 27.9953 2.27344C28.9074 1.98672 30.7098 1.575 32.7727 1.60039C36.5735 1.64571 39.7231 3.12696 41.8805 5.88399C43.4199 7.85118 42.659 11.9816 42.068 14.2691C41.2371 17.4859 39.7805 20.9082 37.9914 23.8871C38.4774 23.8906 39.1809 23.832 40.1817 23.6258C42.1559 23.218 42.7328 24.2766 42.8895 24.7504C43.5172 26.6516 40.7887 28.0879 39.9375 28.4828C38.8469 28.9895 37.0692 29.2977 35.6129 29.2309L35.5492 29.2266L35.1668 29.193L35.1289 29.5117L35.0926 29.8238C34.9949 33.5988 34.4555 35.9895 33.3457 37.5695C32.1828 39.2254 30.566 39.6898 29.1422 39.9949C28.6574 40.0992 28.216 40.1445 27.8156 40.1445ZM24.9242 26.4047C25.8113 27.1145 25.8891 28.45 25.9582 30.9461C25.9668 31.2574 25.975 31.5523 25.986 31.8277C26.0195 32.6613 26.0981 34.6137 26.4035 35.4387C26.4469 35.5551 26.4856 35.6738 26.5262 35.7988C26.8668 36.8426 27.0379 37.3656 28.511 37.05C29.7481 36.7852 30.3836 36.5473 30.8813 35.8387C31.6047 34.8082 32.0094 32.7367 32.0836 29.6797L33.5883 29.7164L32.0938 29.5371L32.1375 29.1641C32.2809 27.9344 32.384 27.0453 33.2063 26.4578C33.8656 25.9863 34.6176 26.032 35.2164 26.1398C34.5586 25.6434 34.3766 25.0598 34.3281 24.8207L34.2027 24.2027L34.5551 23.6793C36.5863 20.6652 38.2617 16.9609 39.1516 13.516C40.0656 9.97618 39.7867 8.0961 39.5082 7.74063C35.8184 3.02539 29.4188 4.97188 28.7508 5.19336L28.6375 5.2543L28.0711 5.36016L27.7809 5.3C26.9813 5.13399 26.093 5.04219 25.1402 5.02657C23.6438 5.00157 22.4367 5.35508 21.4469 6.10625L20.7602 6.62696L19.9629 6.29844C18.2606 5.60235 13.259 4.20274 10.6199 6.07188C9.15509 7.10938 8.48791 9.14258 8.63634 12.1148C8.68517 13.0961 9.35236 16.8106 10.4516 20.4137C11.9715 25.3926 13.3527 27.0461 13.9293 27.2387C14.0297 27.2727 14.291 27.0695 14.5508 26.7578C16.2406 24.7254 17.8477 23.0313 17.9152 22.9598L18.7867 22.043L19.8402 22.743C20.2649 23.0254 20.7332 23.1852 21.2145 23.2152L23.7274 21.0723L23.3633 24.7871C23.3551 24.8707 23.3512 24.984 23.384 25.1949L23.4934 25.8992L23.0195 26.4297L22.9649 26.491L24.3453 27.1285L24.9242 26.4047Z" fill="black"/>
<path d="M40.4867 25.1008C36.1055 26.0043 35.8043 24.5211 35.8043 24.5211C40.4301 17.6574 42.3637 8.94452 40.6949 6.81209C36.1422 0.994907 28.2617 3.74608 28.1301 3.81756L28.0875 3.82499C27.2219 3.64569 26.2535 3.53866 25.1648 3.52108C23.1824 3.48866 21.6785 4.04061 20.5375 4.90584C20.5375 4.90584 6.4789 -0.885561 7.13281 12.1898C7.27187 14.9715 11.1199 33.2375 15.7094 27.7203C17.3867 25.7031 19.0074 23.9972 19.0074 23.9972C19.8125 24.532 20.7762 24.8047 21.7867 24.7066L21.8652 24.6402C21.841 24.8906 21.852 25.1355 21.8965 25.4254C20.7145 26.7469 21.0613 26.9789 18.698 27.4652C16.3062 27.9582 17.7113 28.8355 18.6289 29.0648C19.741 29.3433 22.3137 29.7375 24.052 27.3035L23.9824 27.5812C24.4457 27.9523 24.7711 29.9949 24.7164 31.8465C24.6617 33.698 24.6254 34.9691 24.9906 35.9621C25.3559 36.9547 25.7195 39.189 28.8266 38.5234C31.4227 37.9668 32.768 36.525 32.9555 34.1203C33.0883 32.4105 33.3887 32.6633 33.4078 31.1344L33.6492 30.4105C33.927 28.0926 33.6934 27.3449 35.293 27.693L35.6816 27.7269C36.859 27.7808 38.3996 27.5375 39.3039 27.1172C41.2516 26.2133 42.4066 24.7043 40.4867 25.1008Z" fill="#336791"/>
<path d="M27.9726 39.2164C25.3824 39.2168 24.5621 37.1656 24.2262 36.327C23.7351 35.0981 23.6289 30.3277 23.7383 26.4156C23.7461 26.1383 23.9754 25.9192 24.2543 25.9277C24.5312 25.9356 24.7496 26.1664 24.7422 26.4438C24.616 30.9559 24.7953 35.0445 25.1586 35.9539C25.7262 37.3727 26.5867 38.6137 29.0207 38.0926C31.3312 37.5969 32.1965 36.7207 32.5816 34.4871C32.8777 32.7727 33.4621 27.8957 33.534 26.9332C33.5547 26.6567 33.7945 26.4488 34.0719 26.4699C34.3484 26.4906 34.5558 26.7317 34.5351 27.0078C34.4601 28.0094 33.8781 32.8774 33.5707 34.6578C33.1156 37.2965 31.9394 38.4934 29.2309 39.0742C28.7711 39.1723 28.3527 39.2164 27.9726 39.2164ZM13.9293 29.1988C13.682 29.1992 13.4578 29.1539 13.2637 29.0891C11.5812 28.5277 9.9789 25.7879 8.50077 20.9449C7.37577 17.2582 6.66288 13.4106 6.60038 12.1602C6.41483 8.45313 7.36991 5.83009 9.43827 4.36446C13.5305 1.46485 20.4148 4.22618 20.7058 4.34493C20.9625 4.45001 21.0855 4.74298 20.9805 4.99962C20.8758 5.25587 20.5824 5.37931 20.3262 5.27423V5.27462C20.2598 5.24727 13.6582 2.60274 10.0168 5.18516C8.24804 6.43946 7.43593 8.76915 7.60272 12.1106C7.65546 13.1637 8.32147 16.9195 9.46093 20.6524C10.7805 24.9754 12.2824 27.7039 13.5812 28.1367C13.7848 28.2051 14.4051 28.4117 15.2926 27.3453C16.9613 25.3375 18.4945 23.7352 18.5098 23.7192C18.7016 23.5188 19.0195 23.5125 19.2195 23.7039C19.4195 23.8957 19.4266 24.2137 19.2348 24.4137C19.2195 24.4293 17.7098 26.0078 16.0644 27.9871C15.2851 28.9238 14.5379 29.1988 13.9293 29.1988ZM35.773 24.9688C35.6766 24.9688 35.5789 24.941 35.493 24.8828C35.2629 24.7281 35.2019 24.416 35.357 24.1859C40.0332 17.2469 41.6746 8.8629 40.2687 7.06681C38.4992 4.80587 36.0004 3.62462 32.8422 3.55704C30.5035 3.50626 28.6445 4.10352 28.341 4.20782L28.2648 4.23868C27.9594 4.33477 27.725 4.1672 27.6367 3.97149C27.532 3.73985 27.618 3.46602 27.8351 3.33438L27.9703 3.27891L27.9637 3.28087L27.9707 3.27852C28.4867 3.08985 30.3738 2.52345 32.7117 2.5504C36.2066 2.58712 39.0933 3.93516 41.0598 6.44767C41.9902 7.63673 41.9922 10.3762 41.0656 13.9633C40.1211 17.6203 38.3437 21.5512 36.1898 24.7473C36.093 24.8914 35.9344 24.9688 35.773 24.9688ZM36.0117 28.1809C35.2133 28.1809 34.4976 28.0688 34.0691 27.8117C33.6285 27.5481 33.5445 27.1891 33.5336 26.9988C33.4133 24.8879 34.5781 24.5203 35.1723 24.3527C35.0894 24.2277 34.9715 24.0805 34.85 23.9285C34.5035 23.4957 34.0293 22.9027 33.6637 22.016C33.6066 21.8777 33.4269 21.5555 33.2191 21.1828C32.093 19.1637 29.75 14.9617 31.2551 12.8098C31.9519 11.8141 33.3387 11.4223 35.3824 11.641C34.7812 9.80938 31.918 4.07931 25.125 3.96798C23.0816 3.9336 21.4059 4.56212 20.1469 5.83321C17.3277 8.68048 17.4301 13.832 17.4312 13.8832C17.4387 14.1606 17.2195 14.391 16.9426 14.3981C16.6652 14.4067 16.4348 14.1867 16.4277 13.9094C16.4215 13.6809 16.316 8.27501 19.4336 5.12657C20.8926 3.65313 22.8129 2.92579 25.1414 2.96368C29.4883 3.03516 32.2855 5.24454 33.8672 7.08595C35.5906 9.0922 36.4359 11.3055 36.5055 12.0438C36.5574 12.593 36.1633 12.7031 36.0836 12.7192L35.9027 12.7234C33.8969 12.4024 32.6101 12.625 32.0781 13.3856C30.9332 15.0215 33.1496 18.9961 34.0961 20.6938C34.3379 21.1266 34.5121 21.4395 34.5918 21.6328C34.9027 22.3867 35.3082 22.8934 35.634 23.3004C35.9203 23.6586 36.1687 23.9688 36.2578 24.3336C36.2988 24.4059 36.884 25.2707 40.3547 24.5543C41.2246 24.375 41.7461 24.5285 41.9055 25.0106C42.2191 25.9594 40.4594 27.0656 39.4851 27.5184C38.6109 27.9242 37.2176 28.1809 36.0117 28.1809ZM34.5348 26.916C34.6445 27.0274 35.1953 27.2188 36.3363 27.1699C37.3504 27.1262 38.4203 26.9055 39.0625 26.6078C39.8836 26.2266 40.4312 25.8004 40.7152 25.5094L40.5574 25.5383C38.3383 25.9965 36.7687 25.9356 35.8926 25.3567C35.8297 25.3156 35.7738 25.2727 35.7226 25.2305C35.6277 25.268 35.5398 25.2926 35.4773 25.3102C34.9801 25.4496 34.466 25.5938 34.5348 26.916ZM20.2 29.7203C19.6488 29.7203 19.0687 29.6457 18.4762 29.4969C17.8625 29.3434 16.8273 28.8813 16.8433 28.1223C16.8609 27.2703 18.0996 27.0149 18.5664 26.9188C20.2508 26.5719 20.3605 26.4328 20.8871 25.7645C21.0406 25.5695 21.2316 25.327 21.4918 25.0359C21.8785 24.6035 22.3012 24.384 22.748 24.384C23.059 24.384 23.3144 24.4899 23.4828 24.5594C24.0203 24.782 24.4687 25.3203 24.6531 25.9649C24.8195 26.5461 24.7402 27.1055 24.4297 27.5399C23.4109 28.9668 21.9484 29.7203 20.2 29.7203ZM17.9277 28.1656C18.0793 28.2824 18.3824 28.4387 18.7195 28.5234C19.2328 28.6516 19.7305 28.7168 20.2 28.7168C21.6305 28.7168 22.7785 28.1242 23.6129 26.9567C23.7867 26.7129 23.7348 26.4039 23.6883 26.241C23.5906 25.9004 23.3484 25.5906 23.0988 25.4867C22.9633 25.4305 22.8512 25.3875 22.748 25.3875C22.6926 25.3875 22.5242 25.3875 22.2402 25.7051C22.0004 25.9731 21.8281 26.1918 21.6754 26.3852C21.0199 27.2176 20.7195 27.5 18.7687 27.902C18.293 28.0004 18.0488 28.0996 17.9277 28.1656ZM21.7879 25.85C21.5441 25.85 21.3305 25.6723 21.2922 25.4242C21.2793 25.341 21.2711 25.257 21.2672 25.1727C19.9883 25.1484 18.7547 24.6 17.8183 23.6227C16.6344 22.3871 16.0953 20.6754 16.3398 18.9266C16.6055 17.0274 16.5062 15.3508 16.4527 14.45C16.4379 14.1996 16.4273 14.0188 16.4281 13.8934C16.4289 13.7348 16.432 13.3133 17.8402 12.5996C18.341 12.3457 19.3453 11.9027 20.4422 11.7891C22.2601 11.6016 23.4582 12.4109 23.8168 14.0688C24.7848 18.5453 23.8934 20.5254 23.2426 21.9711C23.1211 22.2399 23.0066 22.4945 22.9152 22.7406L22.8344 22.9582C22.4906 23.8801 22.1933 24.6766 22.2848 25.2719C22.3266 25.5461 22.1387 25.802 21.8648 25.8445L21.7879 25.85ZM17.4351 14.032L17.4551 14.3906C17.5105 15.3262 17.6137 17.0676 17.334 19.066C17.1324 20.5082 17.573 21.9164 18.543 22.9285C19.3094 23.7285 20.3187 24.1699 21.3559 24.1699H21.3773C21.4937 23.6805 21.6863 23.1641 21.8937 22.6074L21.9742 22.3914C22.0777 22.1133 22.1988 21.8442 22.3269 21.5594C22.9535 20.1672 23.7332 18.4344 22.8351 14.2809C22.657 13.4586 22.2258 12.9824 21.5168 12.8254C20.0605 12.5035 17.8906 13.5988 17.4351 14.032ZM20.4648 13.8191C20.4398 13.9965 20.7902 14.4703 21.2465 14.5336C21.7023 14.5973 22.0926 14.227 22.1172 14.0496C22.1418 13.8719 21.7918 13.6766 21.3351 13.6129C20.8793 13.5492 20.4891 13.6414 20.4648 13.8191ZM21.3516 14.7086L21.2234 14.6996C20.9402 14.6602 20.6539 14.4817 20.4582 14.2219C20.3894 14.1309 20.2769 13.9535 20.2992 13.7957C20.3312 13.5641 20.6133 13.4258 21.0543 13.4258C21.1531 13.4258 21.2555 13.4332 21.359 13.4473C21.5996 13.4809 21.8234 13.5504 21.9887 13.6426C22.275 13.8027 22.2961 13.9809 22.2832 14.0734C22.2476 14.3285 21.8406 14.7086 21.3516 14.7086ZM20.6312 13.8488C20.6457 13.9582 20.9164 14.3195 21.2695 14.3684L21.3512 14.3742C21.6769 14.3742 21.9207 14.1176 21.9492 14.0336C21.9191 13.9766 21.7098 13.834 21.3121 13.7793C21.2242 13.7668 21.1371 13.7606 21.0539 13.7606C20.7992 13.7602 20.6629 13.8176 20.6312 13.8488ZM34.3504 13.457C34.375 13.6348 34.0254 14.1086 33.5687 14.1719C33.1125 14.2352 32.7223 13.8652 32.6973 13.6875C32.673 13.5102 33.023 13.3145 33.4793 13.2512C33.9355 13.1871 34.3254 13.2801 34.3504 13.457ZM33.4637 14.2625C33.0242 14.2625 32.6457 13.9207 32.6144 13.6992C32.5785 13.4332 33.0164 13.2309 33.468 13.1684C33.5672 13.1543 33.6656 13.1473 33.7605 13.1473C34.15 13.1473 34.4078 13.2617 34.4336 13.4457C34.4504 13.5652 34.359 13.7492 34.2012 13.9149C34.0973 14.0242 33.8785 14.2137 33.5808 14.2547L33.4637 14.2625ZM33.7601 13.3145C33.673 13.3145 33.5824 13.3211 33.4906 13.3336C33.0367 13.3965 32.7668 13.5789 32.7797 13.6766C32.7949 13.7836 33.0844 14.0953 33.4633 14.0953L33.5566 14.0887C33.8043 14.0539 33.9902 13.8926 34.0789 13.7992C34.218 13.6527 34.2734 13.5152 34.2668 13.468C34.2586 13.4067 34.0914 13.3145 33.7601 13.3145ZM35.0078 23.6477C34.9117 23.6477 34.8148 23.6203 34.7289 23.5629C34.4984 23.4082 34.4367 23.0969 34.591 22.8664C35.6598 21.2699 35.4641 19.6414 35.275 18.0672C35.1941 17.3961 35.1109 16.7027 35.1328 16.0367C35.1547 15.352 35.2414 14.7871 35.3258 14.2402C35.4254 13.593 35.5195 12.9809 35.4805 12.2551C35.4652 11.9785 35.6777 11.7422 35.9547 11.7266C36.2324 11.7117 36.468 11.9242 36.4832 12.2012C36.5277 13.0309 36.4211 13.7231 36.318 14.393C36.2383 14.9098 36.1558 15.4442 36.1359 16.0688C36.1168 16.6582 36.1922 17.2844 36.2719 17.9469C36.4734 19.6215 36.7012 21.5195 35.4254 23.4246C35.3285 23.5692 35.1695 23.6477 35.0078 23.6477Z" fill="white"/>
<path d="M1.10742 40.3063C1.53438 40.2352 2.09258 40.1742 2.80391 40.1742C3.67695 40.1742 4.31719 40.3774 4.72344 40.743C5.09922 41.068 5.32266 41.5656 5.32266 42.1754C5.32266 42.7949 5.13945 43.2824 4.79414 43.6379C4.32695 44.1356 3.56523 44.3895 2.70195 44.3895C2.43789 44.3895 2.19414 44.3793 1.99141 44.3285V47.0711H1.10742V40.3063ZM1.99141 43.607C2.18438 43.6578 2.42812 43.6781 2.72266 43.6781C3.78867 43.6781 4.43906 43.1602 4.43906 42.2156C4.43906 41.3117 3.79922 40.875 2.82422 40.875C2.43828 40.875 2.14375 40.9055 1.99141 40.9461V43.607ZM10.675 44.5719C10.675 46.3898 9.41524 47.1824 8.22695 47.1824C6.89649 47.1824 5.8707 46.2074 5.8707 44.6531C5.8707 43.0078 6.94726 42.043 8.3082 42.043C9.72031 42.0426 10.675 43.0688 10.675 44.5719ZM6.775 44.6227C6.775 45.6992 7.39453 46.5117 8.26797 46.5117C9.12109 46.5117 9.76055 45.7094 9.76055 44.6023C9.76055 43.7695 9.34453 42.7133 8.28789 42.7133C7.23125 42.7133 6.775 43.6883 6.775 44.6227ZM11.6801 46.1563C11.9441 46.3289 12.4113 46.5117 12.8582 46.5117C13.5082 46.5117 13.8129 46.1867 13.8129 45.7805C13.8129 45.3539 13.5594 45.1203 12.8988 44.8766C12.0152 44.5617 11.5988 44.0742 11.5988 43.4852C11.5988 42.693 12.2387 42.043 13.2949 42.043C13.7926 42.043 14.2297 42.1852 14.5039 42.3477L14.2805 42.9977C14.0875 42.8758 13.732 42.7133 13.275 42.7133C12.7469 42.7133 12.4523 43.018 12.4523 43.3836C12.4523 43.7898 12.7473 43.9727 13.3871 44.2164C14.2402 44.5414 14.677 44.968 14.677 45.6992C14.677 46.5625 14.0066 47.1719 12.8387 47.1719C12.3004 47.1719 11.8027 47.0398 11.4574 46.8367L11.6801 46.1563ZM16.9008 40.7426V42.1543H18.1801V42.8348H16.9008V45.4856C16.9008 46.0949 17.073 46.4402 17.5711 46.4402C17.8047 46.4402 17.9773 46.4098 18.0891 46.3793L18.1297 47.0496C17.9574 47.1207 17.6828 47.1715 17.3379 47.1715C16.9215 47.1715 16.5859 47.0395 16.3727 46.7957C16.1191 46.5316 16.0273 46.0949 16.0273 45.516V42.8348H15.2656V42.1543H16.0273V40.9762L16.9008 40.7426ZM23.3602 42.1547C23.3395 42.5102 23.3195 42.9063 23.3195 43.5055V46.3594C23.3195 47.4867 23.0961 48.1774 22.6187 48.6043C22.1414 49.0512 21.4508 49.1934 20.8312 49.1934C20.2422 49.1934 19.5922 49.0512 19.1957 48.7871L19.4191 48.1066C19.7441 48.3098 20.252 48.4926 20.8613 48.4926C21.7754 48.4926 22.4457 48.0152 22.4457 46.7762V46.2277H22.4254C22.1512 46.6848 21.623 47.0504 20.8613 47.0504C19.6426 47.0504 18.7691 46.0145 18.7691 44.6531C18.7691 42.9875 19.8559 42.043 20.9832 42.043C21.8367 42.043 22.3039 42.4899 22.5172 42.8961H22.5375L22.5781 42.1547H23.3602ZM22.4359 44.0945C22.4359 43.9422 22.4258 43.8102 22.3852 43.6883C22.2227 43.1703 21.7859 42.7438 21.1359 42.7438C20.2824 42.7438 19.6734 43.4648 19.6734 44.6023C19.6734 45.5672 20.1609 46.3695 21.1258 46.3695C21.6742 46.3695 22.1719 46.0242 22.3648 45.4555C22.4156 45.3031 22.4363 45.1305 22.4363 44.9781V44.0945H22.4359ZM24.741 43.6883C24.741 43.1094 24.7309 42.6117 24.7004 42.1547H25.4828L25.5129 43.1195H25.5535C25.777 42.4594 26.3152 42.043 26.9145 42.043C27.016 42.043 27.0867 42.0531 27.168 42.0734V42.9164C27.077 42.8961 26.9852 42.8859 26.8637 42.8859C26.234 42.8859 25.7867 43.3633 25.6652 44.0336C25.6449 44.1555 25.6246 44.2977 25.6246 44.45V47.0703H24.741V43.6883ZM28.4586 44.775C28.4789 45.9836 29.2504 46.4813 30.1441 46.4813C30.7844 46.4813 31.1699 46.3695 31.5051 46.2274L31.6574 46.8672C31.3426 47.0094 30.8043 47.1719 30.0223 47.1719C28.509 47.1719 27.6051 46.1766 27.6051 44.6938C27.6051 43.2109 28.4785 42.0426 29.9105 42.0426C31.5152 42.0426 31.9418 43.4543 31.9418 44.3582C31.9418 44.541 31.9215 44.6832 31.9113 44.7746H28.4586V44.775ZM31.0789 44.1352C31.0887 43.5664 30.8449 42.6828 29.8398 42.6828C28.9359 42.6828 28.5398 43.5156 28.4684 44.1352H31.0789Z" fill="#FFE600"/>
<path d="M32.9574 45.9938C33.3535 46.2375 33.9324 46.4406 34.5418 46.4406C35.4457 46.4406 35.9738 45.9633 35.9738 45.2727C35.9738 44.6328 35.6082 44.2672 34.684 43.9117C33.5668 43.5156 32.8762 42.9367 32.8762 41.9719C32.8762 40.9055 33.7598 40.1133 35.0902 40.1133C35.791 40.1133 36.2988 40.2758 36.6035 40.4484L36.3598 41.1695C36.1363 41.0477 35.6793 40.8445 35.0598 40.8445C34.1254 40.8445 33.7699 41.4031 33.7699 41.8703C33.7699 42.5102 34.1859 42.825 35.1308 43.1906C36.2887 43.6379 36.8777 44.1961 36.8777 45.2016C36.8777 46.2578 36.0957 47.1719 34.4808 47.1719C33.8207 47.1719 33.0996 46.9789 32.7336 46.7352L32.9574 45.9938ZM43.7332 48.0758C42.809 47.832 41.9051 47.5578 41.1129 47.2836C40.9707 47.2328 40.8285 47.182 40.6965 47.182C39.0715 47.1211 37.6801 45.9227 37.6801 43.7187C37.6801 41.525 39.0207 40.1133 40.8691 40.1133C42.7277 40.1133 43.9367 41.5555 43.9367 43.5766C43.9367 45.3336 43.1242 46.4609 41.9867 46.857V46.8977C42.6672 47.0703 43.4086 47.2328 43.9875 47.3344L43.7332 48.0758ZM43.0019 43.6172C43.0019 42.2461 42.2914 40.834 40.8387 40.834C39.3457 40.834 38.6144 42.2152 38.6246 43.6984C38.6144 45.1508 39.4168 46.4609 40.798 46.4609C42.2101 46.4609 43.0019 45.1813 43.0019 43.6172ZM45.0836 40.225H45.9676V46.3289H48.8926V47.0703H45.0836V40.225Z" fill="#4EB0FF"/>
</svg>
