<svg width="50" height="50" viewBox="0 0 50 50" fill="none" xmlns="http://www.w3.org/2000/svg">
<path d="M39.8076 25.7825C39.5634 25.5033 39.3056 25.2234 39.0344 24.9428C39.2239 24.7436 39.4072 24.5447 39.5844 24.3459C42.9299 20.587 44.3418 16.8173 43.0335 14.551C41.779 12.3781 38.0472 11.7306 33.3753 12.639C32.9152 12.729 32.4575 12.8306 32.0024 12.9436C31.9153 12.6433 31.8226 12.3447 31.7244 12.0478C30.1396 7.2717 27.5794 4.16501 24.9626 4.16666C22.4534 4.1678 20.0283 7.07726 18.4813 11.5781C18.329 12.0221 18.1882 12.4698 18.0588 12.9213C17.7546 12.8466 17.449 12.7776 17.1422 12.7144C12.213 11.7023 8.24285 12.3689 6.93708 14.6365C5.685 16.811 6.99444 20.3653 10.1215 23.9534C10.4316 24.3084 10.7505 24.6554 11.0782 24.9945C10.6919 25.3924 10.3261 25.7901 9.98517 26.1856C6.93392 29.7231 5.69935 33.2193 6.94942 35.3844C8.24044 37.6208 12.1547 38.3518 16.919 37.4143C17.3051 37.3377 17.6891 37.2516 18.0709 37.1559C18.2108 37.6442 18.3642 38.1283 18.5312 38.608C20.0715 43.0186 22.483 45.8343 24.9833 45.8334C27.5655 45.8319 30.154 42.8066 31.7224 38.2111C31.8462 37.8479 31.9635 37.4707 32.0746 37.0824C32.5678 37.2051 33.0643 37.314 33.5639 37.4091C38.1542 38.2775 41.7983 37.5945 43.046 35.4278C44.3345 33.1898 43.006 29.4361 39.8076 25.7825ZM8.47956 15.5247C9.28344 14.1288 12.528 13.5843 16.7839 14.458C17.0559 14.5139 17.3325 14.5764 17.6139 14.6455C17.1983 16.4835 16.9052 18.3471 16.7362 20.224C15.2006 21.3043 13.7365 22.4829 12.3531 23.7523C12.0483 23.4371 11.7517 23.1142 11.4632 22.7838L11.4633 22.7839C8.78398 19.7095 7.725 16.835 8.47956 15.5247ZM16.5768 27.4582C15.5131 26.6528 14.5246 25.8277 13.6274 24.9978C14.524 24.173 15.5131 23.3507 16.5746 22.5474C16.5364 23.3657 16.5175 24.1846 16.5179 25.0041C16.5185 25.8224 16.5381 26.6405 16.5768 27.4582ZM16.5755 35.6678C14.7698 36.0693 12.9056 36.1351 11.0761 35.8618C10.5746 35.8228 10.0864 35.6813 9.64169 35.4461C9.197 35.2109 8.80527 34.8871 8.49069 34.4945C7.73221 33.1806 8.72352 30.3737 11.333 27.3482C11.6611 26.969 11.9999 26.5998 12.3495 26.2404C13.7331 27.5165 15.1996 28.6997 16.7393 29.7822C16.9106 31.683 17.2072 33.5705 17.6273 35.4322C17.2787 35.5194 16.9281 35.5979 16.5755 35.6678ZM31.3695 18.9191C30.6708 18.4788 29.9634 18.0527 29.2474 17.6407C28.5428 17.2351 27.8298 16.8448 27.1083 16.4697C28.3437 15.9503 29.5581 15.5066 30.7304 15.1451C31.0068 16.3916 31.2201 17.6512 31.3695 18.9191ZM20.1646 12.1567C21.4901 8.30014 23.4513 5.94724 24.9636 5.94659C26.5742 5.94582 28.6668 8.48464 30.0351 12.6083C30.124 12.8771 30.208 13.1475 30.2872 13.4193C28.4895 13.9769 26.7307 14.6528 25.0223 15.4427C23.321 14.6435 21.5677 13.9601 19.7744 13.3969C19.8942 12.9804 20.0243 12.567 20.1646 12.1567ZM19.3305 15.1229C20.5534 15.5079 21.756 15.9543 22.934 16.4604C21.4745 17.2136 20.0527 18.034 18.6686 18.9217C18.8358 17.5925 19.0583 16.319 19.3305 15.1229ZM18.6717 31.0827C19.3619 31.5245 20.0622 31.95 20.7726 32.3592C21.4972 32.7764 22.2315 33.1761 22.9754 33.5583C21.7885 34.0819 20.5755 34.5443 19.3411 34.9435C19.0659 33.7308 18.8409 32.435 18.6717 31.0827ZM30.0377 37.6358C29.4834 39.4007 28.6091 41.0484 27.4583 42.4967L27.4582 42.4969C27.1738 42.9117 26.8074 43.2639 26.3816 43.5316C25.9557 43.7992 25.4795 43.9767 24.9824 44.0531C23.4653 44.054 21.5289 41.7927 20.2117 38.0209C20.0566 37.575 19.9138 37.125 19.7835 36.6709C21.5854 36.0896 23.3458 35.3868 25.0527 34.5674C26.7751 35.3623 28.548 36.0433 30.3597 36.6059C30.2607 36.9517 30.1534 37.295 30.0377 37.6358ZM30.7924 34.877C29.6065 34.5103 28.3745 34.0593 27.1212 33.5322C27.8277 33.1604 28.5393 32.7677 29.2561 32.3542C29.9915 31.9295 30.7083 31.4942 31.4063 31.0482C31.2672 32.3341 31.0623 33.6121 30.7924 34.8771V34.877ZM31.7221 24.9964C31.7237 26.2616 31.6842 27.5258 31.6036 28.789C30.5772 29.4837 29.4936 30.1619 28.3661 30.8128C27.2433 31.4611 26.1309 32.0568 25.0396 32.5959C23.8912 32.0456 22.765 31.4526 21.6609 30.8168C20.563 30.1848 19.4903 29.5119 18.4428 28.798C18.3471 27.5352 18.2988 26.2702 18.2981 25.0028L18.2984 25.0032C18.2975 23.7367 18.3447 22.4715 18.4399 21.2077C19.4661 20.5069 20.5418 19.8292 21.654 19.187C22.7714 18.5418 23.8978 17.9487 25.018 17.411C26.1522 17.9623 27.266 18.553 28.3593 19.1832C29.4564 19.8138 30.5321 20.4795 31.5864 21.1805C31.6769 22.4505 31.7222 23.7225 31.7223 24.9964H31.7221ZM33.7153 14.3864C37.7181 13.6078 40.7361 14.1315 41.4922 15.441C42.2976 16.836 41.1433 19.917 38.2551 23.1626L38.2549 23.1627C38.0954 23.3417 37.9298 23.5215 37.7583 23.7021C36.3509 22.43 34.8586 21.2551 33.2917 20.1857C33.1335 18.3294 32.8513 16.4857 32.447 14.6671C32.878 14.5611 33.3007 14.4675 33.7153 14.3864ZM33.4447 22.4795C34.5017 23.2512 35.5179 24.0772 36.4892 24.9542C35.5222 25.8456 34.5092 26.6858 33.4544 27.4715C33.4867 26.6466 33.5026 25.8213 33.5021 24.9956C33.5017 24.1567 33.4826 23.318 33.4447 22.4795ZM41.5033 34.5394C40.7461 35.8543 37.8202 36.4026 33.8945 35.6599C33.4446 35.575 32.983 35.4739 32.5096 35.3566C32.9042 33.5146 33.1739 31.648 33.3168 29.7696C34.8811 28.6816 36.3687 27.4872 37.7691 26.1949C38.0141 26.4495 38.2472 26.7028 38.4683 26.955V26.9549C39.7205 28.3164 40.7114 29.8969 41.3914 31.6172C41.6088 32.0708 41.7309 32.5641 41.7502 33.0667C41.7694 33.5693 41.6854 34.0706 41.5033 34.5394ZM23.1312 21.7457C22.4939 22.1136 21.98 22.6623 21.6545 23.3223C21.3291 23.9823 21.2066 24.724 21.3027 25.4536C21.3987 26.1832 21.709 26.8679 22.1942 27.4211C22.6794 27.9744 23.3178 28.3714 24.0286 28.5618C24.7394 28.7523 25.4908 28.7276 26.1876 28.4911C26.8844 28.2545 27.4955 27.8166 27.9434 27.2328C28.3914 26.6489 28.6561 25.9454 28.7042 25.2111C28.7523 24.4767 28.5816 23.7446 28.2136 23.1074C27.7202 22.2529 26.9075 21.6294 25.9544 21.374C25.0013 21.1187 23.9858 21.2524 23.1313 21.7457L23.1312 21.7457Z" fill="#6563FF"/>
</svg>
