<svg width="77" height="50" viewBox="0 0 77 50" fill="none" xmlns="http://www.w3.org/2000/svg">
<g clip-path="url(#clip0_20_23)">
<path d="M66.137 28.724C63.4501 28.7371 61.1234 29.2969 59.172 30.1303C58.4515 28.8934 57.731 27.8125 57.6111 27.0053C57.476 26.0678 57.3109 25.4948 57.476 24.3751C57.6409 23.2552 58.3915 21.6667 58.3915 21.5365C58.3763 21.4193 58.2262 20.8463 56.6803 20.8333C55.1343 20.8203 53.7982 21.0937 53.6481 21.4453C53.498 21.7969 53.1978 22.6042 53.0027 23.4375C52.7325 24.6615 49.9105 28.9974 48.3043 31.276C47.7789 30.3906 47.3286 29.6094 47.2384 28.9842C47.1035 28.0469 46.9382 27.4738 47.1035 26.3542C47.2686 25.2342 48.0191 23.6458 48.0191 23.5156C48.0041 23.3984 47.854 22.8255 46.308 22.8125C44.7618 22.7995 43.426 23.0729 43.2759 23.4245C43.1258 23.776 42.9607 24.6094 42.6304 25.4167C42.3151 26.224 38.5624 33.4635 37.5867 35.3516C37.0913 36.3151 36.6562 37.0833 36.3408 37.6042C36.0256 38.125 36.3258 37.6432 36.2958 37.6953C36.0256 38.138 35.8755 38.3854 35.8755 38.3854V38.3986C35.6653 38.7241 35.4402 39.0365 35.335 39.0365C35.2599 39.0365 35.1098 38.1641 35.365 36.9663C35.9204 34.4531 37.2713 30.534 37.2565 30.3908C37.2565 30.3256 37.5115 29.6354 36.3857 29.284C35.2899 28.9324 34.8998 29.5184 34.8096 29.5184C34.7195 29.5184 34.6445 29.7267 34.6445 29.7267C34.6445 29.7267 35.8603 25.3128 32.3178 25.3128C30.0962 25.3128 27.0341 27.4091 25.518 29.3232C24.5573 29.7789 22.5158 30.7423 20.3543 31.7711C19.5287 32.1617 18.6731 32.5784 17.8625 32.956L17.6976 32.7995C13.4045 28.8281 5.46388 26.0156 5.79411 20.6771C5.9142 18.737 6.69475 13.6198 21.0451 7.42187C32.7984 2.34375 42.2101 3.73698 43.8461 6.83593C46.1728 11.263 38.8176 19.4922 26.599 20.6771C21.9457 21.1328 19.4988 19.5703 18.8836 18.9844C18.2381 18.3724 18.148 18.3463 17.9079 18.4635C17.5176 18.6458 17.7578 19.1927 17.9079 19.5182C18.2681 20.3385 19.7692 21.7969 22.321 22.526C24.5574 23.1641 30.0215 23.5156 36.6262 21.3021C44.0264 18.8151 49.8055 11.9141 48.1093 6.14583C46.3831 0.273435 35.1551 -1.65365 24.5426 1.61458C18.2229 3.56771 11.3781 6.61458 6.45458 10.612C0.600424 15.3516 -0.330237 19.4922 0.0600402 21.2109C1.42616 27.3437 11.1679 31.3411 15.0707 34.2969C14.8756 34.3879 14.6954 34.479 14.5303 34.5573C12.5789 35.3905 5.14866 38.763 3.28733 42.3306C1.18584 46.3671 3.61757 49.2708 5.23872 49.6615C10.2523 50.8724 15.3859 48.6979 18.1629 45.1172C20.9247 41.5365 20.5946 36.888 19.3187 34.7656L19.2735 34.6875L20.8046 33.9062C21.7955 33.3984 22.7712 32.9297 23.6266 32.5259C23.1464 33.6587 22.801 34.9999 22.6211 36.953C22.4109 39.2448 23.4917 42.2134 24.9177 43.3853C25.5481 43.893 26.2987 43.9061 26.764 43.9061C28.4152 43.9061 29.1657 42.7211 29.9913 41.302C31.012 39.5702 31.9127 37.565 31.9127 37.565C31.9127 37.565 30.7869 42.9947 33.8641 42.9947C34.9899 42.9947 36.1157 41.7316 36.626 41.0806V41.0936C36.626 41.0936 36.656 41.0546 36.7161 40.9634C36.7791 40.8826 36.8391 40.8002 36.8962 40.7161V40.6901C37.3465 40.013 38.3522 38.4635 39.8533 35.8984C41.7895 32.5911 43.651 28.4505 43.651 28.4505C43.651 28.4505 43.8311 29.4661 44.3865 31.1328C44.7166 32.1225 45.4371 33.2031 45.9925 34.2578C45.5422 34.8047 45.272 35.1173 45.272 35.1173L45.287 35.1303C44.9269 35.547 44.5215 35.9898 44.1013 36.4324C42.5702 38.021 40.7389 39.831 40.4988 40.3518C40.2136 40.9637 40.2736 41.4194 40.829 41.7841C41.2343 42.0445 41.9548 42.0965 42.7203 42.0445C44.1013 41.9663 45.062 41.6669 45.5424 41.4845C46.2929 41.2501 47.1485 40.8986 47.9741 40.3777C49.4751 39.4143 50.3908 38.0471 50.3007 36.2242C50.2557 35.2216 49.8804 34.232 49.4151 33.2945C49.5502 33.1253 49.6854 32.9559 49.8204 32.7737C52.1921 29.7657 54.0234 26.4586 54.0234 26.4586C54.0234 26.4586 54.2035 27.4742 54.7589 29.1409C55.0439 29.9872 55.6145 30.9118 56.1249 31.8233C53.9033 33.3988 52.5073 35.2217 52.027 36.4197C51.1413 38.6332 51.8318 39.6358 53.1377 39.8702C53.723 39.9743 54.5638 39.74 55.1941 39.5056C55.9746 39.2842 56.9203 38.9065 57.7911 38.3467C59.2921 37.3832 60.7331 36.0421 60.6581 34.2322C60.6131 33.3988 60.3579 32.5785 60.0126 31.7973C61.904 31.1202 64.3506 30.7296 67.4579 31.0551C74.1377 31.7322 75.4586 35.3519 75.2036 36.8624C74.9484 38.3729 73.5524 39.2061 73.0869 39.4665C72.6216 39.7139 72.4715 39.8052 72.5165 39.9874C72.5766 40.2609 72.7867 40.2478 73.192 40.1958C73.7474 40.1176 76.7045 38.9588 76.8246 36.1725C77.0047 32.5913 73.0869 28.685 66.137 28.724V28.724ZM14.6204 43.7891C12.4138 45.8854 9.30661 46.6797 7.98567 46.0026C6.55966 45.2865 7.1149 42.2005 9.83198 39.974C11.4832 38.6198 13.6297 37.3698 15.0407 36.6016C15.3559 36.4323 15.8362 36.185 16.4067 35.8854C16.4967 35.8335 16.5568 35.8073 16.5568 35.8073C16.6618 35.7552 16.7819 35.6901 16.902 35.625C17.9077 38.8021 16.947 41.5885 14.6204 43.7891V43.7891ZM30.7568 34.2708C29.9913 35.8984 28.3702 40.0781 27.3945 39.8437C26.5537 39.6484 26.0435 36.4844 27.2292 33.3594C27.8296 31.7837 29.1055 29.9088 29.8561 29.1796C31.0721 28.0077 32.3929 27.6171 32.7232 28.0988C33.1135 28.724 31.2372 33.2552 30.7568 34.2708ZM44.0713 39.7917C43.7411 39.935 43.4409 40.0391 43.3058 39.9611C43.2007 39.909 43.4407 39.7137 43.4407 39.7137C43.4407 39.7137 45.1069 38.1642 45.7674 37.448C46.1426 37.0315 46.5929 36.5497 47.0733 36.0027V36.159C47.0734 38.0338 45.002 39.2839 44.0713 39.7917ZM54.3384 37.7604C54.0983 37.6042 54.1284 37.1224 54.9389 35.612C55.2542 35.013 55.9746 34.0104 57.2205 33.0599C57.3706 33.4505 57.4608 33.828 57.4457 34.1797C57.4308 36.5234 55.5094 37.3958 54.3384 37.7604Z" fill="#CF649A"/>
</g>
<defs>
<clipPath id="clip0_20_23">
<rect width="76.8546" height="50" fill="white"/>
</clipPath>
</defs>
</svg>
