<svg width="136.002" height="72.002" viewBox="0 0 136.002 72.002" xmlns="http://www.w3.org/2000/svg"><g id="svgGroup" stroke-linecap="round" fill-rule="evenodd" font-size="9pt" stroke="#030026" stroke-width="5" fill="none" style="stroke:#030026;stroke-width:5;fill:none"><path d="M 14.302 51.101 L 0.402 6.901 Q 0.002 5.701 0.002 4.401 Q 0.002 0.689 4.414 0.108 A 13.753 13.753 0 0 1 6.202 0.001 Q 8.225 0.001 9.63 0.512 A 5.326 5.326 0 0 1 10.952 1.201 A 5.56 5.56 0 0 1 12.351 2.715 Q 12.79 3.398 13.122 4.269 A 11.535 11.535 0 0 1 13.402 5.101 L 27.202 50.101 A 91.937 91.937 0 0 0 28.133 52.938 Q 29.123 55.786 30.024 57.633 A 17.882 17.882 0 0 0 30.702 58.901 A 10.394 10.394 0 0 0 31.451 60.01 Q 32.342 61.147 33.262 61.471 A 2.212 2.212 0 0 0 34.002 61.601 A 2.44 2.44 0 0 0 35.34 61.172 Q 36.164 60.639 36.962 59.441 A 11.991 11.991 0 0 0 37.302 58.901 A 19.712 19.712 0 0 0 38.225 57.113 Q 39.058 55.306 39.963 52.669 A 93.921 93.921 0 0 0 40.802 50.101 L 54.602 5.101 Q 55.402 2.401 57.052 1.201 A 5.499 5.499 0 0 1 58.632 0.424 Q 59.379 0.186 60.289 0.082 A 13.326 13.326 0 0 1 61.802 0.001 A 12.941 12.941 0 0 1 63.987 0.168 Q 67.888 0.84 67.998 4.203 A 6.037 6.037 0 0 1 68.002 4.401 Q 68.002 5.701 67.602 6.901 L 53.702 51.101 A 75.65 75.65 0 0 1 51.646 56.898 Q 48.908 63.665 45.602 67.151 A 15.218 15.218 0 0 1 34.545 71.993 A 19.81 19.81 0 0 1 34.002 72.001 A 16.528 16.528 0 0 1 27.829 70.881 A 15.177 15.177 0 0 1 22.402 67.151 A 23.138 23.138 0 0 1 19.501 63.284 Q 17.054 59.281 14.973 53.16 A 87.222 87.222 0 0 1 14.302 51.101 Z M 73.202 65.901 L 73.202 30.901 A 40.906 40.906 0 0 1 74.182 21.676 Q 75.908 14.214 80.672 9.058 A 26.162 26.162 0 0 1 81.502 8.201 Q 89.802 0.001 104.602 0.001 A 42.749 42.749 0 0 1 112.858 0.76 A 31.561 31.561 0 0 1 121.402 3.701 Q 128.502 7.401 132.252 14.401 A 31.062 31.062 0 0 1 135.452 23.994 A 41.662 41.662 0 0 1 136.002 30.901 L 136.002 65.901 A 7.005 7.005 0 0 1 135.759 67.795 A 5.134 5.134 0 0 1 134.202 70.301 A 6.126 6.126 0 0 1 131.483 71.676 Q 130.557 71.894 129.472 71.9 A 11.178 11.178 0 0 1 129.402 71.901 A 8.906 8.906 0 0 1 127.313 71.669 A 6.285 6.285 0 0 1 124.552 70.251 A 5.441 5.441 0 0 1 122.718 66.398 A 7.471 7.471 0 0 1 122.702 65.901 L 122.702 49.601 L 86.502 49.601 L 86.502 65.901 A 6.383 6.383 0 0 1 86.184 67.957 A 5.316 5.316 0 0 1 84.652 70.251 A 6.35 6.35 0 0 1 81.647 71.723 A 9.119 9.119 0 0 1 79.802 71.901 Q 76.982 71.901 75.222 70.487 A 5.79 5.79 0 0 1 75.002 70.301 A 5.255 5.255 0 0 1 73.289 67.078 A 7.603 7.603 0 0 1 73.202 65.901 Z M 86.502 39.301 L 122.702 39.301 L 122.702 30.601 Q 122.702 24.077 120.765 19.66 A 15.198 15.198 0 0 0 118.152 15.551 A 14.427 14.427 0 0 0 111.403 11.399 Q 108.399 10.501 104.602 10.501 A 23.251 23.251 0 0 0 97.112 11.605 Q 86.754 15.126 86.508 29.875 A 43.438 43.438 0 0 0 86.502 30.601 L 86.502 39.301 Z" vector-effect="non-scaling-stroke"/></g></svg>