<svg width="69" height="69" viewBox="0 0 69 69" fill="none" xmlns="http://www.w3.org/2000/svg">
<path d="M64.9 4.1C62.4 1.6 59 0.200001 55.4 0.200001C51.8 0.200001 48.4 1.6 45.9 4.1C44.8 5.2 43.9 6.5 43.2 7.9L36.2 0.9C35.3 -3.57628e-07 33.7 -3.57628e-07 32.8 0.9L0.8 32.8C-0.1 33.7 -0.1 35.3 0.8 36.2L32.7 68.1C33.2 68.5 33.8 68.8 34.4 68.8C35 68.8 35.6 68.5 36.1 68.1L46.4 58C47.1 57.3 47.3 56.3 47 55.5C46.7 54.6 45.9 54 44.9 53.9C42.8 53.7 40.9 52.9 39.4 51.4C37.8 49.8 36.9 47.6 36.9 45.3C36.9 43 37.8 40.8 39.4 39.2C41 37.6 43.2 36.7 45.5 36.7C47.8 36.7 50 37.6 51.6 39.2C53.1 40.7 54 42.6 54.1 44.7C54.2 45.6 54.8 46.4 55.7 46.8C56.6 47.1 57.6 46.9 58.2 46.2L68.1 36.3C68.6 35.8 68.8 35.2 68.8 34.6C68.8 34 68.5 33.4 68.1 32.9L61.1 25.9C62.5 25.2 63.8 24.3 64.9 23.2C70.2 17.9 70.2 9.3 64.9 4.1V4.1ZM61.5 19.7C60.1 21.1 58.2 22 56.2 22.2C55.3 22.3 54.5 22.9 54.2 23.8C53.9 24.7 54.1 25.6 54.8 26.3L63 34.5L57.8 39.7C57.1 38.2 56.2 36.8 55 35.6C52.5 33.1 49.1 31.7 45.5 31.7C41.9 31.7 38.5 33.1 36 35.6C33.5 38.1 32.1 41.5 32.1 45.1C32.1 48.7 33.5 52.1 36 54.6C37.2 55.8 38.6 56.7 40.1 57.4L34.6 62.9L5.9 34.5L34.5 6L42.7 14.2C43.4 14.9 44.3 15.1 45.2 14.8C46.1 14.5 46.7 13.7 46.8 12.8C47 10.8 47.9 9 49.3 7.5C50.9 5.9 53.1 5 55.4 5C57.7 5 59.9 5.9 61.5 7.5C64.9 10.9 64.9 16.4 61.5 19.7Z" fill="#030026"/>
</svg>
