<svg width="74" height="72" viewBox="0 0 74 72" fill="none" xmlns="http://www.w3.org/2000/svg">
<path d="M37 0.237915C28.2934 0.238276 19.871 3.33667 13.2399 8.97869C6.60872 14.6207 2.20151 22.4382 0.806825 31.0323C-0.587857 39.6265 1.121 48.4365 5.62763 55.886C10.1343 63.3355 17.1446 68.9384 25.4042 71.692C27.2376 72.0129 27.9251 70.913 27.9251 69.9504C27.9251 69.0796 27.8792 66.192 27.8792 63.1212C18.6667 64.817 16.2833 60.8755 15.55 58.813C14.7363 56.8071 13.4463 55.0295 11.7917 53.6337C10.5083 52.9462 8.675 51.2504 11.7458 51.2047C12.9184 51.3319 14.043 51.7399 15.0243 52.3941C16.0057 53.0483 16.8149 53.9295 17.3833 54.9629C17.8848 55.8638 18.5592 56.6569 19.3677 57.2967C20.1762 57.9365 21.1031 58.4105 22.0951 58.6915C23.0872 58.9726 24.1249 59.0551 25.1489 58.9343C26.1729 58.8136 27.163 58.4919 28.0624 57.9879C28.2212 56.1238 29.0519 54.381 30.4 53.0839C22.2417 52.1672 13.7167 49.0045 13.7167 34.9797C13.6651 31.3356 15.0098 27.8098 17.475 25.1255C16.354 21.9583 16.4852 18.4826 17.8417 15.4089C17.8417 15.4089 20.9124 14.4463 27.925 19.1672C33.9247 17.5171 40.2586 17.5171 46.2583 19.1672C53.2708 14.4005 56.3417 15.4089 56.3417 15.4089C57.6983 18.4825 57.8295 21.9584 56.7083 25.1255C59.1809 27.8052 60.5268 31.334 60.4667 34.9797C60.4667 49.0504 51.8958 52.1672 43.7375 53.0839C44.6126 53.9708 45.2865 55.0356 45.7135 56.2061C46.1406 57.3765 46.3108 58.6251 46.2125 59.8672C46.2125 64.7714 46.1666 68.7129 46.1666 69.9505C46.1666 70.9131 46.8541 72.0589 48.6875 71.6922C56.9326 68.916 63.9227 63.3001 68.4102 55.8468C72.8976 48.3935 74.5902 39.588 73.1859 31.0021C71.7815 22.4163 67.3716 14.6089 60.7434 8.97379C54.1151 3.33863 45.6999 0.242443 37 0.237915V0.237915Z" fill="#030026"/>
</svg>
