<svg width="42" height="27" viewBox="0 0 42 27" fill="none" xmlns="http://www.w3.org/2000/svg">
<path d="M21 26.1906C32.5 26.1906 41.8333 21.5239 41.8333 15.7739C41.8333 11.9041 37.6214 8.53565 31.3597 6.73786C29.0305 6.06912 27.25 4.0514 27.25 1.62811V1.62811C27.25 0.690609 26.125 0.232279 25.4791 0.898945L19.6666 6.71144C19.25 7.12811 19.25 7.77394 19.6666 8.19061L25.4791 14.0031C26.125 14.6489 27.25 14.1906 27.25 13.2531V13.2531C27.25 11.6019 28.7497 10.3403 30.3348 10.8028C35.0033 12.1649 37.6666 14.3365 37.6666 15.7739C37.6666 17.9823 31.3333 22.0239 21 22.0239C10.6666 22.0239 4.33331 17.9823 4.33331 15.7739C4.33331 14.3989 6.83331 12.2739 11.25 10.8989C12.1041 10.6281 12.6666 9.83645 12.6666 8.94061C12.6666 7.54478 11.3125 6.52395 9.99997 6.94061C4.10414 8.77395 0.166638 12.0448 0.166638 15.7739C0.166638 21.5239 9.49997 26.1906 21 26.1906Z" fill="#030026"/>
</svg>
