<svg width="116.71249999999999px" height="128px" xmlns="http://www.w3.org/2000/svg" viewBox="191.64375 11 116.71249999999999 128" style="background: none;" preserveAspectRatio="xMidYMid"><defs><filter id="editing-extrusion" x="-100%" y="-100%" width="300%" height="300%"><feFlood result="color1" flood-color="#979aaa"></feFlood><feConvolveMatrix order="4,4" divisor="1" kernelMatrix="1 0 0 0 0 1 0 0 0 0 1 0 0 0 0 1" in="SourceAlpha" result="extrude"></feConvolveMatrix><feComposite in="color1" in2="extrude" result="comp-extrude" operator="in"></feComposite><feOffset dx="2" dy="2" in="comp-extrude" result="offset-extrude"></feOffset><feMerge><feMergeNode in="offset-extrude"></feMergeNode><feMergeNode in="SourceGraphic"></feMergeNode></feMerge></filter></defs><g filter="url(#editing-extrusion)"><g transform="translate(214.45000338554382, 98.29500007629395)"><path d="M21.31-2.56L21.31-2.56L21.31-2.56Q20.48-1.02 19.81-0.32L19.81-0.32L19.81-0.32Q19.14 0.38 18.11 0.38L18.11 0.38L18.11 0.38Q17.09 0.38 16.32-0.32L16.32-0.32L16.32-0.32Q15.55-1.02 14.66-2.50L14.66-2.50L14.66-2.50Q13.50-4.42 12.06-7.81L12.06-7.81L12.06-7.81Q10.62-11.20 9.15-15.20L9.15-15.20L9.15-15.20Q7.68-19.20 6.27-23.49L6.27-23.49L6.27-23.49Q4.86-27.78 3.74-31.55L3.74-31.55L3.74-31.55Q2.62-35.33 1.95-38.18L1.95-38.18L1.95-38.18Q1.28-41.02 1.28-42.24L1.28-42.24L1.28-42.24Q1.28-43.52 1.79-44.16L1.79-44.16L1.79-44.16Q2.30-44.80 3.78-44.80L3.78-44.80L3.78-44.80Q4.61-44.80 5.22-44.38L5.22-44.38L5.22-44.38Q5.82-43.97 6.78-42.05L6.78-42.05L6.78-42.05Q7.55-40.58 8.45-38.21L8.45-38.21L8.45-38.21Q9.34-35.84 10.34-32.96L10.34-32.96L10.34-32.96Q11.33-30.08 12.35-26.91L12.35-26.91L12.35-26.91Q13.38-23.74 14.40-20.61L14.40-20.61L14.40-20.61Q15.42-17.47 16.32-14.59L16.32-14.59L16.32-14.59Q17.22-11.71 17.98-9.41L17.98-9.41L17.98-9.41Q18.75-11.78 19.71-14.69L19.71-14.69L19.71-14.69Q20.67-17.60 21.70-20.70L21.70-20.70L21.70-20.70Q22.72-23.81 23.74-26.98L23.74-26.98L23.74-26.98Q24.77-30.14 25.79-32.96L25.79-32.96L25.79-32.96Q26.82-35.78 27.71-38.14L27.71-38.14L27.71-38.14Q28.61-40.51 29.31-42.05L29.31-42.05L29.31-42.05Q30.21-43.90 30.88-44.35L30.88-44.35L30.88-44.35Q31.55-44.80 32.26-44.80L32.26-44.80L32.26-44.80Q33.73-44.80 34.27-44.06L34.27-44.06L34.27-44.06Q34.82-43.33 34.82-41.92L34.82-41.92L34.82-41.92Q34.82-40.64 34.43-38.85L34.43-38.85L34.43-38.85Q34.05-37.06 33.12-34.08L33.12-34.08L33.12-34.08Q32.19-31.10 30.66-26.69L30.66-26.69L30.66-26.69Q29.12-22.27 26.88-15.87L26.88-15.87L26.88-15.87Q26.30-14.14 25.57-12.29L25.57-12.29L25.57-12.29Q24.83-10.43 24.10-8.67L24.10-8.67L24.10-8.67Q23.36-6.91 22.66-5.31L22.66-5.31L22.66-5.31Q21.95-3.71 21.31-2.56ZM63.55-3.26L63.55-3.26L63.55-3.26Q62.91-4.80 62.18-6.82L62.18-6.82L62.18-6.82Q61.44-8.83 60.61-11.07L60.61-11.07L60.61-11.07Q58.69-11.01 56.58-10.98L56.58-10.98L56.58-10.98Q54.46-10.94 52.29-10.94L52.29-10.94L52.29-10.94Q49.54-10.94 47.30-10.94L47.30-10.94L47.30-10.94Q45.06-10.94 43.20-11.01L43.20-11.01L43.20-11.01Q42.43-8.77 41.73-6.78L41.73-6.78L41.73-6.78Q41.02-4.80 40.38-3.26L40.38-3.26L40.38-3.26Q39.10 0 36.67 0L36.67 0L36.67 0Q35.78 0 34.98-0.58L34.98-0.58L34.98-0.58Q34.18-1.15 34.18-2.24L34.18-2.24L34.18-2.24Q34.18-3.33 34.56-5.09L34.56-5.09L34.56-5.09Q34.94-6.85 35.55-8.86L35.55-8.86L35.55-8.86Q36.16-10.88 36.86-13.02L36.86-13.02L36.86-13.02Q37.57-15.17 38.21-17.02L38.21-17.02L38.21-17.02Q38.85-19.07 40.03-22.24L40.03-22.24L40.03-22.24Q41.22-25.41 42.56-28.86L42.56-28.86L42.56-28.86Q43.90-32.32 45.25-35.68L45.25-35.68L45.25-35.68Q46.59-39.04 47.68-41.54L47.68-41.54L47.68-41.54Q47.94-42.18 48.32-42.98L48.32-42.98L48.32-42.98Q48.70-43.78 49.25-44.48L49.25-44.48L49.25-44.48Q49.79-45.18 50.46-45.70L50.46-45.70L50.46-45.70Q51.14-46.21 51.97-46.21L51.97-46.21L51.97-46.21Q52.80-46.21 53.50-45.66L53.50-45.66L53.50-45.66Q54.21-45.12 54.75-44.35L54.75-44.35L54.75-44.35Q55.30-43.58 55.71-42.75L55.71-42.75L55.71-42.75Q56.13-41.92 56.38-41.28L56.38-41.28L56.38-41.28Q57.41-38.72 58.72-35.39L58.72-35.39L58.72-35.39Q60.03-32.06 61.34-28.67L61.34-28.67L61.34-28.67Q62.66-25.28 63.81-22.21L63.81-22.21L63.81-22.21Q64.96-19.14 65.66-17.02L65.66-17.02L65.66-17.02Q66.24-15.17 66.98-13.06L66.98-13.06L66.98-13.06Q67.71-10.94 68.35-8.90L68.35-8.90L68.35-8.90Q68.99-6.85 69.41-5.09L69.41-5.09L69.41-5.09Q69.82-3.33 69.82-2.24L69.82-2.24L69.82-2.24Q69.82-1.15 69.02-0.58L69.02-0.58L69.02-0.58Q68.22 0 67.33 0L67.33 0L67.33 0Q66.18 0 65.22-0.80L65.22-0.80L65.22-0.80Q64.26-1.60 63.55-3.26ZM52.22-17.34L52.22-17.34L52.22-17.34Q53.76-17.34 55.30-17.31L55.30-17.31L55.30-17.31Q56.83-17.28 58.37-17.22L58.37-17.22L58.37-17.22Q57.60-19.46 56.83-21.70L56.83-21.70L56.83-21.70Q56.06-23.94 55.39-25.98L55.39-25.98L55.39-25.98Q54.72-28.03 54.18-29.79L54.18-29.79L54.18-29.79Q53.63-31.55 53.25-32.90L53.25-32.90L53.25-32.90Q52.99-33.73 52.67-34.24L52.67-34.24L52.67-34.24Q52.35-34.75 51.84-34.75L51.84-34.75L51.84-34.75Q51.33-34.75 51.01-34.21L51.01-34.21L51.01-34.21Q50.69-33.66 50.43-32.83L50.43-32.83L50.43-32.83Q49.66-30.21 48.29-26.02L48.29-26.02L48.29-26.02Q46.91-21.82 45.38-17.22L45.38-17.22L45.38-17.22Q47.10-17.28 48.83-17.31L48.83-17.31L48.83-17.31Q50.56-17.34 52.22-17.34Z" fill="#302f50"></path></g></g><style>text {
  font-size: 64px;
  font-family: Arial Black;
  dominant-baseline: central;
  text-anchor: middle;
}</style></svg>