<svg width="50" height="50" viewBox="0 0 50 50" fill="none" xmlns="http://www.w3.org/2000/svg">
<path fill-rule="evenodd" clip-rule="evenodd" d="M7.41466 42.7626C7.4284 42.777 7.4425 42.7908 7.45696 42.8043C11.9711 47.253 18.1673 50 25 50C31.8327 50 38.0289 47.253 42.5441 42.8032C42.5577 42.7905 42.5711 42.7772 42.5843 42.7636C47.1624 38.2315 50 31.9445 50 25.0001V24.9999C50 18.0555 47.1624 11.7686 42.5846 7.23665L42.5144 7.16748C41.3515 6.02858 40.0828 5.00019 38.7232 4.10498C36.499 2.64044 34.0417 1.5348 31.469 0.846522C29.3602 0.282375 27.1823 0.00349504 25 0C18.1673 0 11.9711 2.74698 7.45588 7.19676C7.44178 7.2099 7.42804 7.22352 7.41466 7.23738C2.83761 11.7686 0 18.0555 0 25C0 31.9445 2.83761 38.2314 7.41466 42.7626ZM15.2792 39.2961C13.5651 39.9899 11.817 40.9072 10.0527 42.0924C13.2989 44.9344 17.362 46.8677 21.8418 47.4919C19.026 44.7247 16.8774 41.982 15.2792 39.2961ZM34.6537 39.4085C33.0626 42.0584 30.9348 44.7631 28.1583 47.4919C32.6351 46.8678 36.6957 44.9368 39.9424 42.0965C38.8613 41.3979 37.0339 40.3384 34.6537 39.4085ZM26.1449 37.5007V46.2555C28.8234 43.6819 30.8877 41.1354 32.4377 38.6405C30.5607 38.0723 28.4414 37.6366 26.1449 37.5007ZM23.8551 37.469C21.8293 37.5332 19.6927 37.8492 17.4859 38.5169C19.0443 41.0514 21.1324 43.6394 23.8551 46.2554V37.469ZM41.624 40.466C45.1565 36.6713 47.4069 31.6664 47.6817 26.1449H38.6862C38.6731 26.6845 38.6422 27.2287 38.5924 27.7779C38.3139 30.8441 37.4487 34.0697 35.7676 37.3934C38.5146 38.4984 40.5545 39.7457 41.624 40.466ZM14.1691 37.2677C12.5293 33.9877 11.6825 30.805 11.4076 27.7779C11.3578 27.2289 11.3269 26.6846 11.3138 26.1449H2.31829C2.59308 31.6655 4.8428 36.6697 8.37483 40.4648C10.3289 39.1103 12.2663 38.0618 14.1691 37.2677ZM33.5955 36.6073C35.2123 33.4862 36.0497 30.4579 36.3119 27.5708C36.3555 27.0911 36.3833 26.6155 36.3965 26.1449H26.1449V35.1979C28.89 35.3512 31.4054 35.9013 33.5955 36.6073ZM23.8551 35.1655V26.1449H13.6035C13.6167 26.6163 13.6445 27.0915 13.6881 27.5708C13.9463 30.4144 14.7627 33.3951 16.3321 36.4665C18.9451 35.6194 21.4715 35.232 23.8551 35.1655ZM47.6817 23.8551C47.4069 18.334 45.1568 13.3296 41.624 9.53398C40.5147 10.2812 38.3619 11.5948 35.4592 12.7288C37.0948 15.9805 38.3584 19.7419 38.6363 23.8551H47.6817ZM36.3461 23.8551C36.0713 20.0137 34.8677 16.5068 33.3189 13.4805C31.1939 14.1441 28.7749 14.6551 26.1449 14.8021V23.8551H36.3461ZM23.8551 23.8551V14.8345C21.5549 14.7701 19.123 14.4075 16.6093 13.6218C15.0954 16.6147 13.9243 20.0726 13.6538 23.8551H23.8551ZM11.3638 23.8551C11.638 19.7971 12.8717 16.0816 14.476 12.8584C12.4766 12.0508 10.435 10.963 8.37495 9.53518C4.84304 13.3297 2.59308 18.334 2.31829 23.8551H11.3638ZM23.8551 3.75837C22.2314 5.37826 19.8211 8.07221 17.7442 11.5597C19.8598 12.1749 21.9082 12.4691 23.8551 12.531V3.75837ZM26.1449 3.75825V12.4992C28.3375 12.3695 30.3687 11.9665 32.1816 11.4356C30.122 8.00882 27.7496 5.35934 26.1449 3.75825ZM21.9056 2.49931C17.4015 3.11384 13.3157 5.05141 10.0528 7.9077C11.9177 9.16037 13.7647 10.1139 15.5729 10.8206C17.6787 7.18495 20.1392 4.32191 21.9056 2.49931ZM28.0944 2.49931C29.8422 4.30299 32.2691 7.12433 34.3597 10.7047C36.8835 9.7485 38.8168 8.63081 39.9424 7.90348C36.6807 5.04997 32.5965 3.11384 28.0944 2.49931Z" fill="#1F4073"/>
</svg>
